<svg width="67" height="26" viewBox="0 0 67 26" fill="none" xmlns="http://www.w3.org/2000/svg">
<path d="M51.1896 12.862C51.1896 15.4686 50.9063 17.7013 50.3396 19.56C49.7956 21.4186 48.9003 22.8466 47.6536 23.844C46.4296 24.8413 44.775 25.34 42.6896 25.34C39.7656 25.34 37.6236 24.2406 36.2636 22.042C34.9036 19.8206 34.2236 16.7606 34.2236 12.862C34.2236 10.2326 34.4956 7.98864 35.0396 6.12998C35.5836 4.27131 36.479 2.84331 37.7256 1.84597C38.9723 0.848641 40.627 0.349976 42.6896 0.349976C45.591 0.349976 47.733 1.44931 49.1156 3.64797C50.4983 5.84664 51.1896 8.91798 51.1896 12.862ZM39.3236 12.862C39.3236 15.6273 39.5616 17.7126 40.0376 19.118C40.5136 20.5006 41.3976 21.192 42.6896 21.192C43.959 21.192 44.843 20.5006 45.3416 19.118C45.8403 17.7353 46.0896 15.65 46.0896 12.862C46.0896 10.0966 45.8403 8.01131 45.3416 6.60598C44.843 5.20064 43.959 4.49797 42.6896 4.49797C41.3976 4.49797 40.5136 5.20064 40.0376 6.60598C39.5616 8.01131 39.3236 10.0966 39.3236 12.862Z" fill="#15923B"/>
<path d="M66.4987 25H61.3647V10.958C61.3647 10.3686 61.376 9.59797 61.3987 8.64597C61.444 7.69397 61.478 6.85531 61.5007 6.12998C61.3873 6.26597 61.138 6.51531 60.7527 6.87797C60.39 7.21798 60.05 7.52397 59.7327 7.79597L56.9447 10.04L54.4627 6.94598L62.2827 0.723974H66.4987V25Z" fill="#15923B"/>
<path fill-rule="evenodd" clip-rule="evenodd" d="M25 14.5H0V11.5H25V14.5Z" fill="#15923B"/>
</svg>
