<svg width="71" height="26" viewBox="0 0 71 26" fill="none" xmlns="http://www.w3.org/2000/svg">
<path d="M51.1901 12.8621C51.1901 15.4688 50.9068 17.7014 50.3401 19.5601C49.7961 21.4188 48.9008 22.8468 47.6541 23.8441C46.4301 24.8414 44.7755 25.3401 42.6901 25.3401C39.7661 25.3401 37.6241 24.2408 36.2641 22.0421C34.9041 19.8208 34.2241 16.7608 34.2241 12.8621C34.2241 10.2328 34.4961 7.98876 35.0401 6.1301C35.5841 4.27143 36.4795 2.84343 37.7261 1.8461C38.9728 0.848763 40.6275 0.350098 42.6901 0.350098C45.5915 0.350098 47.7335 1.44943 49.1161 3.6481C50.4988 5.84676 51.1901 8.9181 51.1901 12.8621ZM39.3241 12.8621C39.3241 15.6274 39.5621 17.7128 40.0381 19.1181C40.5141 20.5008 41.3981 21.1921 42.6901 21.1921C43.9595 21.1921 44.8435 20.5008 45.3421 19.1181C45.8408 17.7354 46.0901 15.6501 46.0901 12.8621C46.0901 10.0968 45.8408 8.01143 45.3421 6.6061C44.8435 5.20076 43.9595 4.4981 42.6901 4.4981C41.3981 4.4981 40.5141 5.20076 40.0381 6.6061C39.5621 8.01143 39.3241 10.0968 39.3241 12.8621Z" fill="#15923B"/>
<path d="M70.7832 25.0001H53.8172V21.4301L59.9032 15.2761C61.1272 14.0068 62.1132 12.9528 62.8612 12.1141C63.6092 11.2528 64.1532 10.4821 64.4932 9.8021C64.8332 9.09943 65.0032 8.35143 65.0032 7.5581C65.0032 6.58343 64.7312 5.8581 64.1872 5.3821C63.6658 4.9061 62.9518 4.6681 62.0452 4.6681C61.1158 4.6681 60.2092 4.88343 59.3252 5.3141C58.4412 5.74476 57.5118 6.35677 56.5372 7.1501L53.7492 3.8521C54.4518 3.2401 55.1885 2.67343 55.9592 2.1521C56.7525 1.63076 57.6592 1.21143 58.6792 0.894096C59.7218 0.554097 60.9685 0.384097 62.4192 0.384097C64.0058 0.384097 65.3658 0.678764 66.4992 1.2681C67.6552 1.83476 68.5392 2.61676 69.1512 3.6141C69.7858 4.58876 70.1032 5.69943 70.1032 6.9461C70.1032 8.28343 69.8312 9.50743 69.2872 10.6181C68.7658 11.7288 67.9952 12.8281 66.9752 13.9161C65.9778 15.0041 64.7652 16.2054 63.3372 17.5201L60.2092 20.4441V20.6821H70.7832V25.0001Z" fill="#15923B"/>
<path fill-rule="evenodd" clip-rule="evenodd" d="M25 14.5H0V11.5H25V14.5Z" fill="#15923B"/>
</svg>
