<svg width="71" height="26" viewBox="0 0 71 26" fill="none" xmlns="http://www.w3.org/2000/svg">
<path d="M51.1896 12.8621C51.1896 15.4688 50.9063 17.7014 50.3396 19.5601C49.7956 21.4188 48.9003 22.8468 47.6536 23.8441C46.4296 24.8414 44.775 25.3401 42.6896 25.3401C39.7656 25.3401 37.6236 24.2408 36.2636 22.0421C34.9036 19.8208 34.2236 16.7608 34.2236 12.8621C34.2236 10.2328 34.4956 7.98876 35.0396 6.1301C35.5836 4.27143 36.479 2.84343 37.7256 1.8461C38.9723 0.848763 40.627 0.350098 42.6896 0.350098C45.591 0.350098 47.733 1.44943 49.1156 3.6481C50.4983 5.84676 51.1896 8.9181 51.1896 12.8621ZM39.3236 12.8621C39.3236 15.6274 39.5616 17.7128 40.0376 19.1181C40.5136 20.5008 41.3976 21.1921 42.6896 21.1921C43.959 21.1921 44.843 20.5008 45.3416 19.1181C45.8403 17.7354 46.0896 15.6501 46.0896 12.8621C46.0896 10.0968 45.8403 8.01143 45.3416 6.6061C44.843 5.20076 43.959 4.4981 42.6896 4.4981C41.3976 4.4981 40.5136 5.20076 40.0376 6.6061C39.5616 8.01143 39.3236 10.0968 39.3236 12.8621Z" fill="#15923B"/>
<path d="M69.8307 6.1641C69.8307 7.84143 69.3207 9.17876 68.3007 10.1761C67.3033 11.1734 66.068 11.8534 64.5947 12.2161V12.3181C66.544 12.5448 68.0173 13.1341 69.0147 14.0861C70.0347 15.0381 70.5447 16.3188 70.5447 17.9281C70.5447 19.3334 70.1933 20.6028 69.4907 21.7361C68.8107 22.8468 67.7453 23.7308 66.2947 24.3881C64.8667 25.0228 63.0193 25.3401 60.7527 25.3401C58.1233 25.3401 55.7887 24.8981 53.7487 24.0141V19.6621C54.7913 20.1834 55.8793 20.5801 57.0127 20.8521C58.1687 21.1241 59.234 21.2601 60.2087 21.2601C62.0447 21.2601 63.3253 20.9428 64.0507 20.3081C64.7987 19.6734 65.1727 18.7781 65.1727 17.6221C65.1727 16.9421 65.0027 16.3754 64.6627 15.9221C64.3227 15.4461 63.722 15.0948 62.8607 14.8681C62.022 14.6188 60.8433 14.4941 59.3247 14.4941H57.4887V10.5501H59.3587C60.8547 10.5501 61.988 10.4141 62.7587 10.1421C63.552 9.84743 64.0847 9.4621 64.3567 8.9861C64.6513 8.48743 64.7987 7.92076 64.7987 7.2861C64.7987 6.42476 64.5267 5.7561 63.9827 5.2801C63.4613 4.78143 62.5773 4.5321 61.3307 4.5321C60.1747 4.5321 59.166 4.7361 58.3047 5.1441C57.466 5.52943 56.752 5.91476 56.1627 6.3001L53.7827 2.7641C54.7347 2.0841 55.8453 1.51743 57.1147 1.0641C58.4067 0.610764 59.9367 0.384097 61.7047 0.384097C64.198 0.384097 66.17 0.894097 67.6207 1.9141C69.094 2.91143 69.8307 4.3281 69.8307 6.1641Z" fill="#15923B"/>
<path fill-rule="evenodd" clip-rule="evenodd" d="M25 14.5H0V11.5H25V14.5Z" fill="#15923B"/>
</svg>
