<svg xmlns="http://www.w3.org/2000/svg" viewBox="0 0 332.169 71.636"><defs><style>.cls-1{fill:#231815;}</style></defs><title> アセット 88</title><g id="レイヤー_2" data-name="レイヤー 2"><g id="レイヤー_1-2" data-name="レイヤー 1"><path class="cls-1" d="M42.553,2.944A3,3,0,0,0,39.745,1H26.868A3,3,0,0,0,24.06,2.944L.192,66.379A3,3,0,0,0,3,70.436H13.7a3,3,0,0,0,2.829-2l4.194-11.9H45.09l4.194,11.9a3,3,0,0,0,2.829,2h11.5a3,3,0,0,0,2.808-4.057ZM41.274,43.6H24.539l8.367-24.132Z"/><path class="cls-1" d="M113.048,33.958c5.012-1.834,10.024-7.625,10.024-15.291A15.864,15.864,0,0,0,114.183,4.02C109.224,1.432,102.451,1.1,97.105,1.1H76.439a3,3,0,0,0-3,3V67.436a3,3,0,0,0,3,3h25.367c22.985,0,25.466-13.964,25.466-19.967C127.272,42.365,121.96,36.205,113.048,33.958ZM96.006,29H89.87V13.432h6.535c9.354,0,10.436,4.358,10.436,7.635C106.841,23.237,106.841,29,96.006,29ZM89.87,40.534h8.735c7.92,0,11.936,2.905,11.936,8.635S106.525,57.8,98.605,57.8H89.87Z"/><path class="cls-1" d="M169.005,0c-21.992,0-36.768,14.414-36.768,35.868,0,21.394,14.776,35.768,36.768,35.768s36.767-14.374,36.767-35.768C205.772,14.414,191,0,169.005,0Zm0,56.9c-11.985,0-20.036-8.614-20.036-21.436,0-12.761,8.051-21.336,20.036-21.336s20.036,8.575,20.036,21.336C189.041,48.29,180.989,56.9,169.005,56.9Z"/><path class="cls-1" d="M269.171,1.1H258.54a3,3,0,0,0-3,3V41.468c0,5.165-.44,8.691-2.661,11.394A12.34,12.34,0,0,1,243.1,57.1a12.2,12.2,0,0,1-9.772-4.24c-2.218-2.7-2.663-6.361-2.663-11.4V4.1a3,3,0,0,0-3-3H217.038a3,3,0,0,0-3,3V41.468c0,10.363,1.885,16.67,6.545,21.815,5.16,5.476,12.737,8.253,22.521,8.253,9.686,0,17.44-2.855,22.423-8.254,4.719-5.1,6.644-11.424,6.644-21.814V4.1A3,3,0,0,0,269.171,1.1Z"/><path class="cls-1" d="M329.169,1.1H283.036a3,3,0,0,0-3,3v7.132a3,3,0,0,0,3,3h14.8v53.2a3,3,0,0,0,3,3h10.531a3,3,0,0,0,3-3v-53.2h14.8a3,3,0,0,0,3-3V4.1A3,3,0,0,0,329.169,1.1Z"/></g></g></svg>