<svg xmlns="http://www.w3.org/2000/svg" viewBox="0 0 776.629 72.636"><defs><style>.cls-1{fill:#231815;}.cls-2{fill:#040000;}</style></defs><title> アセット 92</title><g id="レイヤー_2" data-name="レイヤー 2"><g id="レイヤー_1-2" data-name="レイヤー 1"><path class="cls-1" d="M690.223,56.189a2.5,2.5,0,0,0-2.076-.405c-.3.076-.6.142-.933.208l-.046.009a116.214,116.214,0,0,1-23.512,2.568c-11.241,0-16.255-2.275-16.255-7.375,0-4.87,5.3-9.205,15.746-12.877a192.665,192.665,0,0,1,25.514-6.912,2.5,2.5,0,0,0,1.922-3.22L687.929,19.9a2.5,2.5,0,0,0-3.118-1.626l-.706.214c-2.832.866-2.875.879-10.443,3.109-3.313.889-5.676,1.708-9.175,2.952l-.339.12-.094-.348a159.231,159.231,0,0,1-4.3-20.825,2.5,2.5,0,0,0-2.85-2.173L648.432,2.58a2.5,2.5,0,0,0-2.075,3.01l.507,2.339c2.419,12.25,2.8,14.082,4.714,21.016l.073.263-.244.124c-5.143,2.614-7.28,3.913-9.942,6.043a21.129,21.129,0,0,0-8.114,16.219c0,6.218,2.753,11.869,7.205,14.758,5.274,3.357,13.354,4.988,24.7,4.988a176.956,176.956,0,0,0,20.121-1.358c1.983-.233,3.223-.374,4.209-.466a2.5,2.5,0,0,0,2.262-2.66l-.6-8.817A2.5,2.5,0,0,0,690.223,56.189Z"/><path class="cls-1" d="M775.576,53.022A63.65,63.65,0,0,0,763.04,45.98h0l-.185-.082-.012-.2c-.565-9.271-.641-10.82-.72-17.057l0-.3.3-.035c3.7-.445,7.5-.938,10.065-1.518l.563-.109a2.5,2.5,0,0,0,2.022-2.549l-.251-6.65a2.5,2.5,0,0,0-3.062-2.341,87.574,87.574,0,0,1-9.419,1.591l-.373.043v-.376c0-4.935.093-8.415.291-10.952a2.5,2.5,0,0,0-2.492-2.695h-.015l-7.47.043a2.5,2.5,0,0,0-2.482,2.63c.025.487.038,1,.038,1.534V17.679l-.325.009c-2.726.08-4.069.08-5.771.08a90.367,90.367,0,0,1-11.824-.7,2.5,2.5,0,0,0-2.843,2.445l-.084,6.734a2.543,2.543,0,0,0,2.339,2.526c.039,0,.131.01.17.012,6.731.24,11.318.4,13.683.4,1.634,0,2.713,0,4.545-.08l.339-.015.009.341c.04,1.376.061,2.346.08,3.3l0,.145c.02.938.039,1.877.077,3.189.116,2.7.148,3.669.188,4.848l.069,1.971-.41-.074a23.081,23.081,0,0,0-4.58-.476c-4.971,0-9.162,1.112-12.126,3.218a13.794,13.794,0,0,0-5.939,11.488c0,9.108,6.873,14.546,18.384,14.546,10.088,0,16.867-4.431,16.867-11.026V59.307l.513.325a60.3,60.3,0,0,1,6.6,4.7,2.5,2.5,0,0,0,3.955-1.044l2.727-7.359A2.5,2.5,0,0,0,775.576,53.022ZM745.5,52.94a13.258,13.258,0,0,1,4.993.979l.21.076.092,1.759c0,3.394-1.886,4.975-5.936,4.975-3.411,0-5.615-1.482-5.615-3.775C739.241,54.44,741.58,52.94,745.5,52.94Z"/><path class="cls-1" d="M723.191,43.594l-3.8-1.282,0-.245a147.292,147.292,0,0,1,3.848-31.106c.387-1.738.774-3.28,1.151-4.583a2.5,2.5,0,0,0-2.226-3.19L713.806,2.6a2.492,2.492,0,0,0-2.653,2.163C711,5.9,710.759,7.4,710.385,9.491c-2.508,14.165-3.195,21.1-3.195,32.263,0,8.658.313,12.962,1.759,24.2l.092.8c.149,1.307.253,2.21.326,2.882a2.5,2.5,0,0,0,2.484,2.229l.105,0,7.863-.326a2.5,2.5,0,0,0,2.394-2.623c-.008-.159-.012-.273-.012-.364,0-9.146.728-15.29,2.6-21.914A2.5,2.5,0,0,0,723.191,43.594Z"/><path class="cls-2" d="M41.6,34.355a17.171,17.171,0,0,0,9.036-15.188A16.347,16.347,0,0,0,41.475,4.076C36.419,1.438,29.568,1.1,24.166,1.1H3.5A3.5,3.5,0,0,0,0,4.6V67.936a3.5,3.5,0,0,0,3.5,3.5H28.866c23.437,0,25.967-14.313,25.967-20.467C54.833,43.056,49.916,36.93,41.6,34.355ZM23.066,29H17.431V14.432h6.035c8.806,0,9.935,3.813,9.935,7.135C33.4,23.792,33.4,29,23.066,29ZM17.431,41.534h8.235c7.588,0,11.436,2.737,11.436,8.135S33.254,57.8,25.666,57.8H17.431Z"/><path class="cls-2" d="M100.065,0C77.774,0,62.8,14.615,62.8,36.368c0,21.693,14.976,36.268,37.267,36.268s37.268-14.575,37.268-36.268C137.333,14.615,122.356,0,100.065,0Zm0,56.9c-11.685,0-19.536-8.414-19.536-20.936,0-12.463,7.851-20.836,19.536-20.836S119.6,23.505,119.6,35.968C119.6,48.49,111.751,56.9,100.065,56.9Z"/><path class="cls-2" d="M182.865,0C160.574,0,145.6,14.615,145.6,36.368c0,21.693,14.976,36.268,37.267,36.268s37.268-14.575,37.268-36.268C220.133,14.615,205.156,0,182.865,0Zm0,56.9c-11.685,0-19.536-8.414-19.536-20.936,0-12.463,7.851-20.836,19.536-20.836S202.4,23.505,202.4,35.968C202.4,48.49,194.551,56.9,182.865,56.9Z"/><path class="cls-2" d="M265.693,29.335,285.5,6.917A3.5,3.5,0,0,0,282.88,1.1h-11.6a3.493,3.493,0,0,0-2.673,1.241L249.329,25.149V4.6a3.5,3.5,0,0,0-3.5-3.5H235.4a3.5,3.5,0,0,0-3.5,3.5V67.936a3.505,3.505,0,0,0,3.5,3.5h10.431a3.5,3.5,0,0,0,3.5-3.5V48.324l4.727-5.243,16.013,26.657a3.519,3.519,0,0,0,3,1.7h12.676a3.5,3.5,0,0,0,2.966-5.359Z"/><path class="cls-2" d="M339.863,1.1H318a3.5,3.5,0,0,0-3.5,3.5V67.936a3.5,3.5,0,0,0,3.5,3.5h10.53a3.5,3.5,0,0,0,3.5-3.5v-22h7.836c16.439,0,25.866-8.189,25.866-22.467C365.729,9.252,356.3,1.1,339.863,1.1ZM348,23.467c0,5.891-3.316,8.635-10.436,8.635h-5.635V14.932h5.635C344.683,14.932,348,17.644,348,23.467Z"/><path class="cls-2" d="M414.128,56.7h-20.4V4.6a3.5,3.5,0,0,0-3.5-3.5H379.8a3.5,3.5,0,0,0-3.5,3.5V67.936a3.5,3.5,0,0,0,3.5,3.5h34.332a3.5,3.5,0,0,0,3.5-3.5V60.2A3.5,3.5,0,0,0,414.128,56.7Z"/><path class="cls-2" d="M469.675,3.268A3.517,3.517,0,0,0,466.4,1H453.522a3.516,3.516,0,0,0-3.275,2.268L426.379,66.7a3.5,3.5,0,0,0,3.275,4.733h10.7a3.5,3.5,0,0,0,3.3-2.337l4.075-11.564h23.661L475.467,69.1a3.5,3.5,0,0,0,3.3,2.337h11.5a3.5,3.5,0,0,0,3.275-4.733ZM467.227,43.6H451.9l7.666-22.1Z"/><path class="cls-2" d="M556.6,53.266h0a3.5,3.5,0,0,0-5.29-1.441A25.652,25.652,0,0,1,535.86,56.6c-11.984,0-20.036-8.253-20.036-20.536,0-12.536,7.864-20.636,20.036-20.636a26.88,26.88,0,0,1,14.571,4.684,3.521,3.521,0,0,0,3.033.445,3.484,3.484,0,0,0,2.221-2.112l2.911-7.8a3.523,3.523,0,0,0-1.172-4.018C554.191,4.191,546.974.1,534.96.1c-22.052,0-36.867,14.575-36.867,36.268s14.815,36.268,36.867,36.268c9.778,0,17.8-2.74,23.855-8.142a3.5,3.5,0,0,0,.887-3.989Z"/><path class="cls-2" d="M616.025,57h-26V42.334h23.5a3.5,3.5,0,0,0,3.5-3.5V31.6a3.5,3.5,0,0,0-3.5-3.5h-23.5V15.332h25.1a3.5,3.5,0,0,0,3.5-3.5V4.6a3.5,3.5,0,0,0-3.5-3.5H576.093a3.5,3.5,0,0,0-3.5,3.5V67.936a3.5,3.5,0,0,0,3.5,3.5h39.932a3.5,3.5,0,0,0,3.5-3.5V60.5A3.5,3.5,0,0,0,616.025,57Z"/></g></g></svg>