<svg xmlns="http://www.w3.org/2000/svg" viewBox="0 0 438.129 71.636"><defs><style>.cls-1{fill:#231815;}</style></defs><title> アセット 87</title><g id="レイヤー_2" data-name="レイヤー 2"><g id="レイヤー_1-2" data-name="レイヤー 1"><path class="cls-1" d="M57.547,52.963a3,3,0,0,0-4.535-1.235A26.145,26.145,0,0,1,37.268,56.6c-12.284,0-20.537-8.454-20.537-21.036,0-12.839,8.061-21.136,20.537-21.136A27.389,27.389,0,0,1,52.12,19.2a3,3,0,0,0,4.5-1.429l2.911-7.8a3,3,0,0,0-1-3.444C55.348,4.128,48.235.1,36.367.1,14.615.1,0,14.474,0,35.868S14.615,71.636,36.367,71.636c9.652,0,17.566-2.7,23.523-8.015a3,3,0,0,0,.759-3.419Z"/><path class="cls-1" d="M99.767,0C77.774,0,63,14.414,63,35.868c0,21.394,14.775,35.768,36.768,35.768s36.767-14.374,36.767-35.768C136.534,14.414,121.759,0,99.767,0Zm0,56.9C87.782,56.9,79.73,48.29,79.73,35.468c0-12.761,8.052-21.336,20.037-21.336S119.8,22.707,119.8,35.468C119.8,48.29,111.751,56.9,99.767,56.9Z"/><path class="cls-1" d="M203.033,1.1H192.9a3,3,0,0,0-3,3V32.568c0,6.105.208,12.532.278,14.5L161.741,2.487A3,3,0,0,0,159.212,1.1H146.3a3,3,0,0,0-3,3V67.436a3,3,0,0,0,3,3h10.131a3,3,0,0,0,3-3V39.068c0-6.09-.212-12.962-.28-15.01l29.14,45.008a3,3,0,0,0,2.519,1.37h12.223a3,3,0,0,0,3-3V4.1A3,3,0,0,0,203.033,1.1Z"/><path class="cls-1" d="M264.532,11.232V4.1a3,3,0,0,0-3-3H215.4a3,3,0,0,0-3,3v7.132a3,3,0,0,0,3,3h14.8v53.2a3,3,0,0,0,3,3h10.531a3,3,0,0,0,3-3v-53.2h14.8A3,3,0,0,0,264.532,11.232Z"/><path class="cls-1" d="M300.011,2.944A3,3,0,0,0,297.2,1H284.326a3,3,0,0,0-2.807,1.944L257.65,66.379a3,3,0,0,0,2.808,4.057h10.7a3,3,0,0,0,2.829-2l4.194-11.9h24.367l4.194,11.9a3,3,0,0,0,2.829,2h11.5a3,3,0,0,0,2.808-4.057ZM298.732,43.6H282l8.368-24.132Z"/><path class="cls-1" d="M380.943,52.963a3,3,0,0,0-4.535-1.235A26.142,26.142,0,0,1,360.664,56.6c-12.283,0-20.536-8.454-20.536-21.036,0-12.839,8.06-21.136,20.536-21.136A27.394,27.394,0,0,1,375.517,19.2a3,3,0,0,0,4.5-1.429l2.911-7.8a3,3,0,0,0-1-3.444C378.744,4.128,371.632.1,359.764.1,338.012.1,323.4,14.474,323.4,35.868s14.616,35.768,36.368,35.768c9.651,0,17.565-2.7,23.522-8.015a3,3,0,0,0,.76-3.419Z"/><path class="cls-1" d="M435.129,1.1H389a3,3,0,0,0-3,3v7.132a3,3,0,0,0,3,3h14.8v53.2a3,3,0,0,0,3,3h10.531a3,3,0,0,0,3-3v-53.2h14.8a3,3,0,0,0,3-3V4.1A3,3,0,0,0,435.129,1.1Z"/></g></g></svg>