<svg width="533" height="38" viewBox="0 0 533 38" fill="none" xmlns="http://www.w3.org/2000/svg">
<path d="M22.4799 25.88V17.08C24.2799 20.32 26.4399 23.32 28.8399 25.88H22.4799ZM11.1999 25.88C13.5599 23.32 15.6799 20.36 17.4799 17.16V25.88H11.1999ZM37.6399 12.68V7.87999H22.4799V0.159997H17.4799V7.87999H2.43988V12.68H14.6399C11.5599 18.84 6.51988 24.6 0.879883 27.68C1.99988 28.6 3.51988 30.44 4.35988 31.64C6.55988 30.24 8.67988 28.52 10.5999 26.52V30.72H17.4799V37.48H22.4799V30.72H29.1199V26.16C31.1199 28.28 33.3199 30.08 35.6399 31.52C36.4799 30.16 38.1199 28.16 39.3199 27.2C33.5999 24.2 28.4799 18.68 25.3599 12.68H37.6399Z" fill="#333333"/>
<path d="M57.9199 6.03999V11.16C62.9599 11.64 70.1999 11.6 75.1199 11.16V6C70.7999 6.52 62.8399 6.72 57.9199 6.03999ZM61.1199 23.12L56.5199 22.68C56.0799 24.72 55.8399 26.32 55.8399 27.88C55.8399 32 59.1599 34.44 66.0399 34.44C70.5599 34.44 73.7599 34.16 76.3599 33.68L76.2799 28.28C72.7599 29 69.7999 29.32 66.2399 29.32C62.1599 29.32 60.6399 28.24 60.6399 26.48C60.6399 25.4 60.7999 24.44 61.1199 23.12ZM51.7599 3.36L46.1599 2.88C46.1199 4.16 45.8799 5.68 45.7599 6.8C45.3199 9.88 44.0799 16.64 44.0799 22.64C44.0799 28.08 44.8399 32.96 45.6399 35.72L50.2799 35.4C50.2399 34.84 50.1999 34.2 50.1999 33.76C50.1999 33.36 50.2799 32.48 50.3999 31.88C50.8399 29.76 52.1599 25.4 53.2799 22.08L50.7999 20.12C50.2399 21.44 49.5999 22.84 48.9999 24.2C48.8799 23.4 48.8399 22.36 48.8399 21.6C48.8399 17.6 50.2399 9.6 50.7599 6.92C50.9199 6.2 51.4399 4.2 51.7599 3.36Z" fill="#333333"/>
<path d="M111.12 20.52V30.48H102.2V18.4H114.48V3.88H109.48V13.76H102.2V0.519997H97.3199V13.76H90.4399V3.88H85.7199V18.4H97.3199V30.48H88.9599V20.52H84.1199V37.48H88.9599V35.16H111.12V37.44H116.08V20.52H111.12Z" fill="#333333"/>
<path d="M132.64 12.12C135.68 9.76 138.24 7.16 139.96 4.72C141.8 7.2 144.56 9.8 147.64 12.12H132.64ZM130.68 16.48H149.36V13.32C151.56 14.84 153.88 16.16 156.08 17.2C156.92 15.8 157.96 14.08 159.16 12.84C152.84 10.6 146.48 6.04 142.24 0.159997H137.28C134.28 4.88 127.92 10.56 121.12 13.56C122.12 14.6 123.36 16.4 123.92 17.56C126.24 16.44 128.56 15.08 130.68 13.56V16.48ZM123.6 24.2H132.88C132.04 26.56 130.92 29.2 129.84 31.44L123.8 31.64L124.44 36.28C131.24 35.96 141.12 35.56 150.52 35.04C151.16 35.92 151.72 36.76 152.12 37.52L156.56 34.84C154.68 31.84 150.96 27.68 147.4 24.56L143.2 26.76C144.52 27.96 145.88 29.4 147.12 30.84C143.04 31 138.92 31.16 135.08 31.28C136.28 29.04 137.6 26.56 138.76 24.2H156.68V19.8H123.6V24.2Z" fill="#333333"/>
<path d="M177.44 1.52H171.92C172.04 2.24 172.2 4.2 172.2 5.04C172.2 5.72 172.2 6.88 172.16 8.28C171.36 8.32 170.56 8.36 169.84 8.36C168.4 8.36 166.68 8.32 164.32 8.04L164.4 12.88C165.76 13.04 167.32 13.08 170 13.08C170.64 13.08 171.36 13.04 172.12 13C172.12 14.12 172.12 15.24 172.12 16.36C172.12 17.28 172.12 18.24 172.16 19.2C167.24 21.32 163.24 24.96 163.24 28.44C163.24 32.68 168.72 36.04 172.6 36.04C175.24 36.04 177 34.72 177 29.76C177 28.4 176.92 25.28 176.84 22.12C179.28 21.4 181.88 21 184.36 21C187.84 21 190.24 22.6 190.24 25.32C190.24 28.24 187.68 29.84 184.44 30.44C183.04 30.68 181.32 30.72 179.52 30.72L181.36 35.88C183 35.76 184.76 35.64 186.6 35.24C192.96 33.64 195.44 30.08 195.44 25.36C195.44 19.84 190.6 16.64 184.44 16.64C182.24 16.64 179.48 17 176.76 17.68C176.76 17.16 176.76 16.68 176.76 16.2C176.76 15.04 176.76 13.8 176.8 12.6C179.4 12.28 182.16 11.88 184.44 11.36L184.32 6.4C182.24 7 179.6 7.52 176.96 7.84C177 6.84 177.04 5.88 177.08 5C177.16 3.96 177.32 2.24 177.44 1.52ZM188.84 5.84L186.64 9.72C189.12 10.92 194.36 13.92 196.28 15.56L198.68 11.48C196.56 9.96 191.92 7.32 188.84 5.84ZM168.16 28.24C168.16 26.84 169.8 25.2 172.24 23.88C172.32 26.04 172.36 27.88 172.36 28.88C172.36 30.24 171.8 30.56 171.08 30.56C170.04 30.56 168.16 29.48 168.16 28.24Z" fill="#333333"/>
<path d="M227.4 20.92C227.4 27.16 221 30.44 211.08 31.56L213.96 36.52C225.08 35 233 29.68 233 21.12C233 14.84 228.56 11.24 222.24 11.24C217.56 11.24 213.08 12.4 210.16 13.08C208.84 13.36 207.12 13.64 205.76 13.76L207.28 19.48C208.44 19.04 210 18.4 211.16 18.08C213.2 17.48 217.16 16.12 221.56 16.12C225.32 16.12 227.4 18.28 227.4 20.92ZM211.68 1.72L210.88 6.52C215.48 7.32 224.16 8.12 228.84 8.43999L229.64 3.52C225.4 3.48 216.32 2.72 211.68 1.72Z" fill="#333333"/>
<path d="M250.2 36.76L254.48 33.08C252.48 30.6 248.6 26.64 245.76 24.32L241.6 27.92C244.36 30.32 247.76 33.76 250.2 36.76Z" fill="#333333"/>
<path d="M299.84 1.79999L294.64 1.68C294.68 2.36 294.6 3.32 294.56 4.08C294.48 4.76 294.4 5.48 294.32 6.24C293.8 6.24 293.28 6.24 292.72 6.24C290.28 6.24 286.76 5.92 285.36 5.68L285.48 10.32C287.36 10.4 290.48 10.56 292.56 10.56C293 10.56 293.4 10.56 293.84 10.56C293.68 12.2 293.56 13.88 293.48 15.6C287.88 18.24 283.64 23.6 283.64 28.76C283.64 32.8 286.12 34.56 289.04 34.56C291.16 34.56 293.28 33.92 295.24 32.96C295.4 33.52 295.6 34.08 295.76 34.6L300.36 33.2C300.04 32.24 299.72 31.24 299.44 30.24C302.48 27.72 305.68 23.52 307.84 18.08C310.6 19.16 312 21.28 312 23.68C312 27.6 308.88 31.52 301.16 32.36L303.8 36.56C313.64 35.08 316.96 29.6 316.96 23.92C316.96 19.28 313.88 15.64 309.24 14.12C309.48 13.36 309.8 12.52 309.96 12.08L305.08 10.92C305.04 11.52 304.88 12.52 304.72 13.32C304.48 13.32 304.24 13.32 304 13.32C302.04 13.32 299.96 13.6 298.04 14.04C298.08 12.84 298.2 11.6 298.32 10.4C303.24 10.2 308.6 9.72 312.52 9L312.48 4.36C308.08 5.4 303.76 5.92 298.88 6.12C299 5.32 299.16 4.6 299.28 3.92C299.44 3.32 299.6 2.6 299.84 1.79999ZM288.36 27.72C288.36 25.44 290.36 22.4 293.36 20.36C293.44 23.12 293.76 25.88 294.2 28.36C292.76 29.2 291.32 29.68 290.2 29.68C288.92 29.68 288.36 29 288.36 27.72ZM297.88 18.4V18.28C299.44 17.8 301.28 17.44 303.4 17.4C302.04 20.64 300.24 23.08 298.36 25.04C298.04 23.04 297.88 20.84 297.88 18.4Z" fill="#333333"/>
<path d="M338.88 1.79999L333.36 1.24C333.28 3.32 332.84 5.72 332.28 7.92C331.04 8.04 329.84 8.08 328.64 8.08C327.16 8.08 325.04 8 323.32 7.8L323.68 12.44C325.4 12.56 327.04 12.6 328.68 12.6C329.36 12.6 330.04 12.6 330.76 12.56C329 16.88 325.76 22.76 322.6 26.68L327.44 29.16C330.68 24.64 334.08 17.64 336 12.04C338.68 11.64 341.16 11.12 343 10.64L342.84 6C341.28 6.48 339.4 6.92 337.44 7.28C338.04 5.12 338.56 3.08 338.88 1.79999ZM336.8 29.48C336.8 28.08 338.28 27.04 340.6 27.04C341.72 27.04 342.8 27.2 343.84 27.44C343.84 27.76 343.84 28 343.84 28.24C343.84 30.44 343 31.96 340.24 31.96C338.04 31.96 336.8 30.96 336.8 29.48ZM348.24 14.24H343.24C343.32 16.68 343.52 20.24 343.68 23.2C342.76 23.12 341.88 23.04 340.92 23.04C335.36 23.04 332.08 26.04 332.08 29.96C332.08 34.36 336 36.56 340.96 36.56C346.64 36.56 348.68 33.68 348.68 29.96C348.68 29.84 348.68 29.68 348.68 29.56C350.88 30.88 352.68 32.56 354.08 33.84L356.76 29.56C354.72 27.72 351.92 25.72 348.48 24.44C348.4 22.44 348.28 20.52 348.24 19.36C348.2 17.6 348.12 15.92 348.24 14.24ZM355.12 16.36L357.96 12.16C355.92 10.68 350.96 7.96 348.08 6.72L345.52 10.68C348.24 11.92 352.8 14.52 355.12 16.36Z" fill="#333333"/>
<path d="M383.48 24.24L378.72 23.76C378.4 25.36 378 27.28 378 29.12C378 33.16 381.64 35.48 388.36 35.48C391.56 35.48 394.28 35.2 396.52 34.92L396.72 29.8C393.84 30.32 391.08 30.64 388.4 30.64C384.12 30.64 382.92 29.32 382.92 27.56C382.92 26.68 383.16 25.36 383.48 24.24ZM378.96 2.08L372.84 1.6C372.96 2.52 372.88 4.16 372.72 5.64C372.64 6.28 372.52 7.04 372.36 7.92C371.12 8 369.92 8.04 368.76 8.04C367.12 8.04 365.76 7.96 363.72 7.72L363.84 12.72C365.24 12.8 366.76 12.88 368.68 12.88C369.52 12.88 370.4 12.84 371.32 12.8C371.08 13.96 370.76 15.08 370.48 16.16C369 21.76 365.96 30.16 363.56 34.16L369.12 36.04C371.36 31.28 374.04 23.12 375.48 17.52C375.92 15.88 376.32 14.12 376.68 12.4C379.36 12.08 382.08 11.64 384.48 11.08V6.08C382.28 6.6 380.04 7.04 377.8 7.36C377.92 6.8 378.04 6.28 378.12 5.84C378.28 4.96 378.64 3.16 378.96 2.08ZM381.32 14.16V18.84C383.84 18.56 386.32 18.44 389.04 18.44C391.48 18.44 393.92 18.68 395.92 18.92L396.04 14.12C393.68 13.88 391.28 13.76 389 13.76C386.44 13.76 383.56 13.96 381.32 14.16Z" fill="#333333"/>
<path d="M437.08 19.92C437.08 11.2 430.84 4.32 420.92 4.32C410.56 4.32 402.56 12.2 402.56 21.44C402.56 28.2 406.24 33.08 410.68 33.08C415.04 33.08 418.48 28.12 420.88 20.04C422.04 16.28 422.72 12.6 423.28 9.2C428.68 10.12 431.68 14.24 431.68 19.76C431.68 25.6 427.68 29.28 422.56 30.48C421.48 30.72 420.36 30.96 418.84 31.12L421.84 35.88C431.92 34.32 437.08 28.36 437.08 19.92ZM407.68 20.92C407.68 16.52 411.24 10.68 417.84 9.32C417.4 12.64 416.64 16.04 415.72 19C414.08 24.4 412.52 26.92 410.84 26.92C409.28 26.92 407.68 24.96 407.68 20.92Z" fill="#333333"/>
<path d="M477.96 2.28H467.96V6.44H477.96V2.28ZM457.36 12.36H452.08V16.48H467V12.36H461.88V8.48H466.4V4.52H461.88V0.119995H457.36V4.52H452.84V8.48H457.36V12.36ZM447.76 0.159997C446.4 2.68 443.6 5.88 441.04 7.8C441.76 8.64 442.96 10.4 443.52 11.36C446.6 8.96 449.92 5.2 452.04 1.72L447.76 0.159997ZM448.68 8.56C446.84 12.68 443.72 16.84 440.56 19.44C441.4 20.44 442.72 22.84 443.16 23.8C443.96 23.08 444.76 22.24 445.6 21.28V37.48H449.96V15.48C451.12 13.68 452.08 11.8 452.92 10L448.68 8.56ZM478.6 12.96H467.68V17.2H470.92V32.12C470.92 32.6 470.76 32.72 470.24 32.72C469.8 32.76 468.76 32.72 467.52 32.72L467.4 28.92C465.52 29.12 463.64 29.32 461.8 29.52V25.2H466.72V21.12H461.8V17.16H457.32V21.12H452.36V25.2H457.32V29.96C455.08 30.16 453 30.36 451.28 30.48L451.76 34.84C455.84 34.4 461.32 33.8 466.56 33.16C467.08 34.52 467.52 36.24 467.68 37.44C470.4 37.44 472.4 37.36 473.8 36.6C475.28 35.8 475.6 34.52 475.6 32.2V17.2H478.6V12.96Z" fill="#333333"/>
<path d="M482.76 6.56L483.28 12.04C487.92 11.04 496.08 10.16 499.84 9.76C497.12 11.8 493.88 16.36 493.88 22.12C493.88 30.8 501.8 35.28 510.2 35.84L512.08 30.36C505.28 30 499.12 27.64 499.12 21.04C499.12 16.28 502.76 11.12 507.6 9.84C509.72 9.32 513.16 9.32 515.32 9.28L515.28 4.16C512.44 4.28 508.08 4.52 503.96 4.88C496.64 5.48 490.04 6.08 486.68 6.36C485.92 6.44 484.36 6.52 482.76 6.56ZM509.6 13.2L506.64 14.44C507.92 16.24 508.76 17.8 509.76 20L512.8 18.64C512.04 17.08 510.6 14.64 509.6 13.2ZM514.08 11.36L511.16 12.72C512.44 14.48 513.36 15.96 514.44 18.12L517.44 16.68C516.6 15.12 515.08 12.76 514.08 11.36Z" fill="#333333"/>
<path d="M526.118 24.08C522.598 24.08 519.678 27 519.678 30.56C519.678 34.12 522.598 37.04 526.118 37.04C529.718 37.04 532.598 34.12 532.598 30.56C532.598 27 529.718 24.08 526.118 24.08ZM526.118 34.16C524.198 34.16 522.558 32.56 522.558 30.56C522.558 28.56 524.198 26.96 526.118 26.96C528.118 26.96 529.718 28.56 529.718 30.56C529.718 32.56 528.118 34.16 526.118 34.16Z" fill="#333333"/>
</svg>
