<svg xmlns="http://www.w3.org/2000/svg" viewBox="0 0 872.882 74.772"><defs><style>.cls-1{fill:#040000;}.cls-2{fill:#231815;}</style></defs><title> アセット 93</title><g id="レイヤー_2" data-name="レイヤー 2"><g id="レイヤー_1-2" data-name="レイヤー 1"><path class="cls-1" d="M41.6,35.923a17.171,17.171,0,0,0,9.036-15.188A16.347,16.347,0,0,0,41.475,5.644C36.419,3.006,29.568,2.668,24.166,2.668H3.5A3.5,3.5,0,0,0,0,6.168V69.5A3.5,3.5,0,0,0,3.5,73H28.866C52.3,73,54.833,58.69,54.833,52.537,54.833,44.624,49.916,38.5,41.6,35.923ZM23.066,30.57H17.431V16h6.035c8.806,0,9.935,3.813,9.935,7.135C33.4,25.36,33.4,30.57,23.066,30.57ZM17.431,43.1h8.235c7.588,0,11.436,2.737,11.436,8.135s-3.848,8.135-11.436,8.135H17.431Z"/><path class="cls-1" d="M100.065,1.568C77.774,1.568,62.8,16.183,62.8,37.936,62.8,59.628,77.774,74.2,100.065,74.2s37.268-14.576,37.268-36.268C137.333,16.183,122.356,1.568,100.065,1.568Zm0,56.9c-11.685,0-19.536-8.414-19.536-20.936,0-12.463,7.851-20.836,19.536-20.836S119.6,25.073,119.6,37.536C119.6,50.058,111.751,58.472,100.065,58.472Z"/><path class="cls-1" d="M182.865,1.568c-22.291,0-37.267,14.615-37.267,36.368,0,21.692,14.976,36.268,37.267,36.268s37.268-14.576,37.268-36.268C220.133,16.183,205.156,1.568,182.865,1.568Zm0,56.9c-11.685,0-19.536-8.414-19.536-20.936,0-12.463,7.851-20.836,19.536-20.836S202.4,25.073,202.4,37.536C202.4,50.058,194.551,58.472,182.865,58.472Z"/><path class="cls-1" d="M265.693,30.9,285.5,8.485a3.5,3.5,0,0,0-2.623-5.817h-11.6a3.493,3.493,0,0,0-2.673,1.241L249.329,26.717V6.168a3.5,3.5,0,0,0-3.5-3.5H235.4a3.5,3.5,0,0,0-3.5,3.5V69.5a3.5,3.5,0,0,0,3.5,3.5h10.431a3.5,3.5,0,0,0,3.5-3.5V49.892l4.727-5.243,16.013,26.657a3.518,3.518,0,0,0,3,1.7h12.676a3.5,3.5,0,0,0,2.966-5.358Z"/><path class="cls-1" d="M339.863,2.668H318a3.5,3.5,0,0,0-3.5,3.5V69.5A3.5,3.5,0,0,0,318,73h10.53a3.5,3.5,0,0,0,3.5-3.5v-22h7.836c16.439,0,25.866-8.189,25.866-22.467C365.729,10.82,356.3,2.668,339.863,2.668ZM348,25.035c0,5.891-3.316,8.635-10.436,8.635h-5.635V16.5h5.635C344.683,16.5,348,19.212,348,25.035Z"/><path class="cls-1" d="M414.128,58.271h-20.4V6.168a3.5,3.5,0,0,0-3.5-3.5H379.8a3.5,3.5,0,0,0-3.5,3.5V69.5a3.5,3.5,0,0,0,3.5,3.5h34.332a3.5,3.5,0,0,0,3.5-3.5V61.771A3.5,3.5,0,0,0,414.128,58.271Z"/><path class="cls-1" d="M469.675,4.836A3.515,3.515,0,0,0,466.4,2.568H453.522a3.515,3.515,0,0,0-3.275,2.267L426.379,68.271A3.5,3.5,0,0,0,429.654,73h10.7a3.5,3.5,0,0,0,3.3-2.336L447.73,59.1h23.661l4.076,11.564a3.5,3.5,0,0,0,3.3,2.336h11.5a3.5,3.5,0,0,0,3.275-4.732Zm-2.448,40.335H451.9l7.666-22.106Z"/><path class="cls-1" d="M556.6,54.834h0a3.5,3.5,0,0,0-5.29-1.44,25.653,25.653,0,0,1-15.449,4.778c-11.984,0-20.036-8.252-20.036-20.535C515.824,25.1,523.688,17,535.86,17a26.872,26.872,0,0,1,14.571,4.684,3.521,3.521,0,0,0,3.033.445,3.484,3.484,0,0,0,2.221-2.112l2.911-7.8A3.522,3.522,0,0,0,557.424,8.2c-3.233-2.439-10.45-6.53-22.464-6.53-22.052,0-36.867,14.575-36.867,36.268S512.908,74.2,534.96,74.2c9.778,0,17.8-2.74,23.855-8.142a3.5,3.5,0,0,0,.887-3.989Z"/><path class="cls-1" d="M616.025,58.572h-26V43.9h23.5a3.5,3.5,0,0,0,3.5-3.5V33.17a3.5,3.5,0,0,0-3.5-3.5h-23.5V16.9h25.1a3.5,3.5,0,0,0,3.5-3.5V6.168a3.5,3.5,0,0,0-3.5-3.5H576.093a3.5,3.5,0,0,0-3.5,3.5V69.5a3.5,3.5,0,0,0,3.5,3.5h39.932a3.5,3.5,0,0,0,3.5-3.5V62.072A3.5,3.5,0,0,0,616.025,58.572Z"/><path class="cls-2" d="M670.735,5.68c-11.8,0-21.725,4.028-28.714,11.652a35.147,35.147,0,0,0-9.112,24.174c0,14.452,7.363,24.546,17.9,24.546,4.84,0,11.144-1.652,16.977-14.525,4.316-9.433,7.022-19.741,8.772-33.423l.044-.345.343.057a13.7,13.7,0,0,1,6.867,2.863c4.693,3.559,7.173,9.1,7.173,16.027,0,8.675-3.573,15.553-9.78,18.858A36.284,36.284,0,0,1,668.973,59.2a2.5,2.5,0,0,0-1.782,3.8,36.169,36.169,0,0,1,3.407,7.143,2.5,2.5,0,0,0,2.346,1.641,2.471,2.471,0,0,0,.442-.04c9.605-1.718,15.328-4.164,20.407-8.719,6.691-5.975,10.528-15.3,10.528-25.592,0-9.013-2.676-16.622-7.749-22.01C690.7,9.229,681.286,5.68,670.735,5.68Zm-7.3,12.233-.048.43a104.611,104.611,0,0,1-6.022,24.487c-1.54,3.9-3.92,9.091-6.791,9.091-2.97,0-5.3-4.61-5.3-10.495a26.266,26.266,0,0,1,8.838-19.294,16.2,16.2,0,0,1,8.89-4.157Z"/><path class="cls-2" d="M786.089,23.041c-1.965.105-4.342.16-6.873.16h-8.255v-5.47H777.7c2.217,0,4.283.055,6.14.163a2.5,2.5,0,0,0,2.645-2.5V9.665A2.5,2.5,0,0,0,783.8,7.171c-1.812.129-3.752.189-6.108.189h-6.735V5.266c0-1.052.017-1.841.053-2.56a2.5,2.5,0,0,0-2.5-2.626h-6.311a2.5,2.5,0,0,0-2.5,2.659c.054.836.079,1.689.079,2.607V7.36h-4.975c-2.26,0-4.124-.059-5.864-.185a2.5,2.5,0,0,0-2.68,2.493V15.4a2.5,2.5,0,0,0,2.646,2.5c1.812-.106,3.8-.161,5.9-.161h4.975V23.2h-6.574c-2.544,0-4.694-.047-6.97-.153a2.532,2.532,0,0,0-1.843.689,2.5,2.5,0,0,0-.773,1.808v5.418a2.5,2.5,0,0,0,2.639,2.5c1.911-.105,4.159-.127,6.947-.127h16.575v4.909H753.375a80.055,80.055,0,0,1-8.837-.322l-.923-.1a2.586,2.586,0,0,0-.444-.4,2.5,2.5,0,0,0-2.294-.3c-.231.084-1.223.456-2.316.865V25.572h.335c1.371,0,1.731,0,2.706.056a2.5,2.5,0,0,0,2.638-2.5V17.489a2.5,2.5,0,0,0-2.618-2.5c-.709.034-1.523.048-2.726.048h-.335V6.226c0-1.281.041-2.437.125-3.534A2.5,2.5,0,0,0,736.193,0H729.91a2.5,2.5,0,0,0-2.492,2.7c.089,1.137.132,2.292.132,3.531V15.04h-2.83V12.857s.047-2.23.061-2.766a2.5,2.5,0,0,0-2.222-2.552l-3.276-.365a2.5,2.5,0,0,0-2.776,2.516l0,.456a83.323,83.323,0,0,1-2.454,20.421,2.5,2.5,0,0,0,1.41,2.919,31.619,31.619,0,0,1,3.3,1.692,2.5,2.5,0,0,0,3.685-1.569,59.029,59.029,0,0,0,1.312-7.742l.035-.3h3.752V41.286l-.252.065c-5.1,1.316-7.891,1.952-10.31,2.343a2.5,2.5,0,0,0-2.065,2.891l1.087,6.323a2.5,2.5,0,0,0,3.178,1.972c.756-.225,1.759-.5,3.389-.957l.117-.036c.618-.2,1.137-.367,1.706-.546.72-.225,1.52-.475,2.709-.872l.441-.147v12.7c0,2.556-.071,5-.2,7.085a2.5,2.5,0,0,0,2.5,2.66h6.448a2.5,2.5,0,0,0,2.494-2.669c-.151-2.221-.221-4.47-.221-7.076V48.472l.438-.158c1.789-.645,2.111-.761,4.646-1.835l.465-.2a2.5,2.5,0,0,0,2.693,2.467c.756-.058,1.531-.095,2.439-.115a2.416,2.416,0,0,0,.27-.021h20.279V61.267c0,1.759-.48,2.494-3.455,2.494-.986,0-2.421-.09-4.265-.268a2.5,2.5,0,0,0-2.642,3.181,35.477,35.477,0,0,1,1.048,5.185,2.5,2.5,0,0,0,2.364,2.164c1.586.072,3.044.11,4.215.11,10.337,0,13.825-2.258,13.825-8.946V48.612h.335c1.7,0,3.032.047,4.326.15a2.5,2.5,0,0,0,2.7-2.492V40.676a2.5,2.5,0,0,0-2.6-2.5c-1.065.044-2.387.063-4.423.063h-.335V33.332h.335c1.491,0,3.215.054,4.854.154a2.5,2.5,0,0,0,2.652-2.495V25.537a2.5,2.5,0,0,0-2.633-2.5Z"/><path class="cls-2" d="M760.876,61.3l1.245-.949a2.5,2.5,0,0,0,.549-3.4,46.476,46.476,0,0,0-6.465-7.594,2.5,2.5,0,0,0-3-.35l-4.976,2.933a2.5,2.5,0,0,0-.617,3.794,51.235,51.235,0,0,1,5.666,7.845,2.506,2.506,0,0,0,1.681,1.178,2.491,2.491,0,0,0,2-.477l3.573-2.76A2.481,2.481,0,0,0,760.876,61.3Z"/><path class="cls-2" d="M869.682,22.617l.008-.325h.661a2.574,2.574,0,0,0,1.788-.721,2.5,2.5,0,0,0,.743-1.779v-5.6a2.5,2.5,0,0,0-2.63-2.5c-.854.044-1.833.063-3.275.063h-6.215l.168-.539c.7-2.262,1.089-3.508,1.479-5.147l.293-1.321A2.5,2.5,0,0,0,860.8,1.759L855.06.511a2.5,2.5,0,0,0-3.008,2.1,60.817,60.817,0,0,1-3.664,13.5l-1.427-.306V8.946c0-.9.011-1.638.032-2.286a2.5,2.5,0,0,0-2.5-2.58h-2.383a2.5,2.5,0,0,0-2.5,2.573c.019.649.019,1.206.019,2.133V15.6H836.4V5.906c0-1.133.018-2.06.051-2.909a2.5,2.5,0,0,0-2.5-2.6h-4.034a2.5,2.5,0,0,0-2.5,2.6c.034.883.05,1.807.05,2.83V15.6H824.4V8.786c0-.776,0-1.49.011-2.167a2.5,2.5,0,0,0-2.5-2.539H819.49a1.923,1.923,0,0,1-2.879.051L812.55,1.073a2.5,2.5,0,0,0-3.6.628A39.732,39.732,0,0,1,798.13,12.242a2.5,2.5,0,0,0-.753,3.311,39.152,39.152,0,0,1,2.714,5.689,2.5,2.5,0,0,0,3.888,1.052A83.274,83.274,0,0,0,816.4,10.174l.594-.726V21.669l-3.372-1.835a2.5,2.5,0,0,0-3.388,1,49.023,49.023,0,0,1-12.738,14.861,2.5,2.5,0,0,0-.781,2.856,47.289,47.289,0,0,1,1.948,6.214,2.5,2.5,0,0,0,4.322,1.055l.123-.142-.118,1.07c-.072.668-.076,2.139-.076,4.681v14.32c0,2.531-.059,4.549-.186,6.35a2.5,2.5,0,0,0,2.494,2.675h6.142a2.5,2.5,0,0,0,2.5-2.615c-.067-1.469-.1-3.3-.1-5.93V34.519l.938-1.269c.515-.692.87-1.172,1.524-2.1l.835-1.182c.025-.035.048-.071.072-.108l.843-1.335c.346-.549.651-1.026.908-1.425l.2-.31c.209-.323.371-.576.48-.756a2.555,2.555,0,0,0,.218-.465h23.587l-.452.549c-.365.445-.637.787-.926,1.151-.178.224-.343.432-.522.648a2.7,2.7,0,0,0-.187.256,2.505,2.505,0,0,0-.217.22c-.163.186-.343.387-.558.618l-.1.107H821.215c-.7,0-1.191,0-1.8-.021a2.5,2.5,0,0,0-2.586,2.5V36.56a2.5,2.5,0,0,0,2.6,2.5c.811-.031,1.711-.046,2.829-.046h4.335V43.6H822.9c-.946,0-1.771-.011-2.523-.036a2.5,2.5,0,0,0-2.583,2.5v4.649a2.5,2.5,0,0,0,.765,1.8,2.556,2.556,0,0,0,1.825.7c.718-.026,1.523-.039,2.516-.039h3.694v5.921l-.306.027c-2.752.245-5.522.415-7.6.466a2.5,2.5,0,0,0-2.432,2.681l.423,5.807a2.5,2.5,0,0,0,2.946,2.277l1.628-.3c7.942-1.168,12.388-1.884,17.738-3.036l.2-.043.129.162a40.366,40.366,0,0,1,3.429,5.114,2.5,2.5,0,0,0,3.716.713A55.1,55.1,0,0,0,856.873,62.5l.284-.364.257.386a58.509,58.509,0,0,0,7.781,9.517,2.5,2.5,0,0,0,4.091-.844,61.619,61.619,0,0,1,3.281-7.023,2.5,2.5,0,0,0-.636-3.132,43.336,43.336,0,0,1-8.5-9.017l-.115-.159.083-.178C867.482,42.866,869.363,34.172,869.682,22.617Zm-10.051-.054c-.376,6.992-.749,10.78-2.091,16.145l-.278,1.115-.364-1.091a57.506,57.506,0,0,1-2.653-11.014l-.016-.108.05-.1c1.206-2.332,1.606-3.137,2.47-5.1l.088-.2h2.812ZM844.683,38.32a2.5,2.5,0,0,0,.757-1.793V35.1l.573.571a5.378,5.378,0,0,1,.714.874l.242.341.014.073a77.316,77.316,0,0,0,4.7,14.979l.072.17-.108.153a44.347,44.347,0,0,1-6.284,7.172l-.563.527v-.373a2.54,2.54,0,0,0-.956-1.9,2.662,2.662,0,0,0-2.1-.539c-1.481.258-2.554.444-4.237.692l-.384.057V53.172h1.855c1.36,0,2.487.019,3.548.06a2.5,2.5,0,0,0,2.6-2.5V46.041a2.5,2.5,0,0,0-2.6-2.5c-1.024.041-2.152.059-3.547.059h-1.855V39.012H841.7c.442,0,.824,0,1.173.014A2.578,2.578,0,0,0,844.683,38.32Z"/></g></g></svg>