<svg xmlns="http://www.w3.org/2000/svg" viewBox="0 0 403.727 70.535"><defs><style>.cls-1{fill:#231815;}</style></defs><title> アセット 89</title><g id="レイヤー_2" data-name="レイヤー 2"><g id="レイヤー_1-2" data-name="レイヤー 1"><path class="cls-1" d="M40.433.1H3a3,3,0,0,0-3,3V66.435a3,3,0,0,0,3,3H13.431a3,3,0,0,0,3-3v-23.3h22.4a3,3,0,0,0,3-3V32.9a3,3,0,0,0-3-3h-22.4V13.332h24a3,3,0,0,0,3-3V3.1A3,3,0,0,0,40.433.1Z"/><path class="cls-1" d="M97.132,56H70.63V40.333h24a3,3,0,0,0,3-3V30.1a3,3,0,0,0-3-3h-24V13.332h25.6a3,3,0,0,0,3-3V3.1a3,3,0,0,0-3-3H57.2a3,3,0,0,0-3,3V66.435a3,3,0,0,0,3,3H97.132a3,3,0,0,0,3-3V59A3,3,0,0,0,97.132,56Z"/><path class="cls-1" d="M148.911,1.943A3,3,0,0,0,146.1,0H133.227a3,3,0,0,0-2.808,1.943L106.551,65.378a3,3,0,0,0,2.807,4.057h10.7a3,3,0,0,0,2.829-2l4.193-11.9h24.367l4.195,11.9a3,3,0,0,0,2.829,2h11.5a3,3,0,0,0,2.807-4.057ZM147.633,42.6H130.9l8.368-24.132Z"/><path class="cls-1" d="M215.03.1H168.9a3,3,0,0,0-3,3v7.131a3,3,0,0,0,3,3h14.8v53.2a3,3,0,0,0,3,3h10.531a3,3,0,0,0,3-3v-53.2h14.8a3,3,0,0,0,3-3V3.1A3,3,0,0,0,215.03.1Z"/><path class="cls-1" d="M279.029.1H268.4a3,3,0,0,0-3,3V40.468c0,5.165-.44,8.69-2.661,11.394a12.339,12.339,0,0,1-9.774,4.241,12.2,12.2,0,0,1-9.773-4.24c-2.217-2.7-2.663-6.361-2.663-11.395V3.1a3,3,0,0,0-3-3H226.9a3,3,0,0,0-3,3V40.468c0,10.362,1.885,16.67,6.545,21.814,5.161,5.476,12.738,8.253,22.522,8.253,9.685,0,17.439-2.855,22.423-8.254,4.718-5.1,6.643-11.424,6.643-21.813V3.1A3,3,0,0,0,279.029.1Z"/><path class="cls-1" d="M333.312,40.86c3.409-1.119,13.416-5.632,13.416-19.893C346.728,7.9,337.021.1,320.761.1H298.8a3,3,0,0,0-3,3V66.435a3,3,0,0,0,3,3h10.53a3,3,0,0,0,3-3v-23.4h4.837l13.647,24.845a3,3,0,0,0,2.629,1.556H345.5a3,3,0,0,0,2.557-4.57ZM312.226,12.932h6.235c2.878,0,11.636,0,11.636,8.634,0,5.878-3.806,8.736-11.636,8.736h-6.235Z"/><path class="cls-1" d="M400.727,56h-26.5V40.333h24a3,3,0,0,0,3-3V30.1a3,3,0,0,0-3-3h-24V13.332h25.6a3,3,0,0,0,3-3V3.1a3,3,0,0,0-3-3H360.794a3,3,0,0,0-3,3V66.435a3,3,0,0,0,3,3h39.933a3,3,0,0,0,3-3V59A3,3,0,0,0,400.727,56Z"/></g></g></svg>