<svg xmlns="http://www.w3.org/2000/svg" viewBox="0 0 869.298 74.693"><defs><style>.cls-1{fill:#231815;}.cls-2{fill:#040000;}</style></defs><title> アセット 95</title><g id="レイヤー_2" data-name="レイヤー 2"><g id="レイヤー_1-2" data-name="レイヤー 1"><path class="cls-1" d="M671.678,12.934c-1.662.074-3.626.107-6.366.107h-6.748l.014-.349c.04-.969.061-1.632.08-2.315.02-.635.04-1.275.077-2.187,0-.034,0-.067,0-.1,0-2.534.024-3.951.084-5.054A2.5,2.5,0,0,0,656.324.4H649.6a2.5,2.5,0,0,0-2.5,2.656c.1,1.527.139,3.22.139,5.33v4.655h-2.415c-1.989,0-4.072-.014-5.824-.113a2.546,2.546,0,0,0-1.858.679,2.505,2.505,0,0,0-.783,1.817V21.5A2.5,2.5,0,0,0,639.02,24c1.224-.076,2.584-.106,4.691-.106h3.078l-.023.357c-.733,10.916-1.791,17.486-3.776,23.442A54.562,54.562,0,0,1,635.8,61.92a2.5,2.5,0,0,0,.264,3.185,40.139,40.139,0,0,1,5.169,6.432,2.528,2.528,0,0,0,2.121,1.133,2.5,2.5,0,0,0,2.1-1.18,69.857,69.857,0,0,0,7.941-17.521c2.717-8.873,3.9-16.384,4.7-29.763l.019-.314h4.813l0,.337c-.168,18-.512,24.957-1.6,32.367-.69,4.822-1.173,6.046-4.011,6.046a17.688,17.688,0,0,1-1.925-.142,2.5,2.5,0,0,0-2.727,3.038,37.887,37.887,0,0,1,.825,5.379,2.5,2.5,0,0,0,2.338,2.281c1.478.091,2.829.135,4.129.135,12.5,0,13.828-4.944,14.226-52.875l.023-1.27c.028-1.548.048-2.663.085-3.663a2.5,2.5,0,0,0-2.608-2.591Z"/><path class="cls-1" d="M708.178,15.106c0-2.288.031-3.788.109-5.176a2.5,2.5,0,0,0-.714-1.894,2.545,2.545,0,0,0-1.883-.744c-1.134.047-2.5.068-4.3.068h-16.88c-1.779,0-3.1-.024-4.287-.079a2.5,2.5,0,0,0-2.611,2.642c.08,1.39.113,2.891.113,5.183V64.547c0,2.37-.062,4.422-.19,6.274a2.5,2.5,0,0,0,2.494,2.672H686.4a2.5,2.5,0,0,0,2.5-2.5v-3.42h7.95v3.26a2.5,2.5,0,0,0,2.5,2.5h6.487a2.5,2.5,0,0,0,2.494-2.664c-.126-1.917-.151-4.153-.151-6.922ZM688.9,57.042V18.052h7.95v38.99Z"/><path class="cls-1" d="M786.521,62.281c-.632.029-1.3.04-2.088.04H782.5V50.787c0-2.051,0-3.289.081-4.74l.013-.227.214-.071c2.963-.985,4.013-3.08,4.013-8V9.986c0-2.06.021-3.658.068-5.03a2.507,2.507,0,0,0-.722-1.843,2.43,2.43,0,0,0-1.835-.741c-1.224.028-2.818.038-5.5.028H758.752c-1.491,0-2.636-.013-3.569-.04a2.5,2.5,0,0,0-2.566,2.653c.1,1.617.15,3.156.15,4.573,0,12.34-1.1,18.847-4.045,24.006l-.052.093a2.5,2.5,0,0,0-.325,1.265l-.279.279a2.561,2.561,0,0,0,.031-.316V11.106c0-2.672,0-4.144.036-5.318a2.5,2.5,0,0,0-2.586-2.576c-1.329.047-2.827.068-4.715.068H725.951c-1.895,0-3.366-.023-4.77-.076a2.451,2.451,0,0,0-1.871.74,2.5,2.5,0,0,0-.72,1.879c.068,1.418.1,2.971.1,5.363v19.28c0,3.68-.037,5.9-.132,7.929a2.5,2.5,0,0,0,2.5,2.617h5.825a2.5,2.5,0,0,0,2.5-2.5v-1.1H745.6a2.492,2.492,0,0,0,1.092-.263l-1.1,1.931a2.5,2.5,0,0,0,.748,3.3c.583.4,1.21.857,1.977,1.419l.825.605H729.552c-1.379,0-2.6-.02-3.729-.061a2.536,2.536,0,0,0-1.875.749,2.494,2.494,0,0,0-.711,1.889c.064,1.16.089,2.273.089,3.969V62.321h-1.854c-.751,0-1.4-.011-2.013-.039a2.5,2.5,0,0,0-2.613,2.5V70.4A2.5,2.5,0,0,0,719.5,72.9c2.09-.132,4.6-.2,7.247-.2h52.562c2.629,0,5.106.07,7.164.2.054,0,.107,0,.161,0a2.5,2.5,0,0,0,2.5-2.5V64.778a2.5,2.5,0,0,0-2.617-2.5Zm-52.184-.039v-8.19h5.47v8.19Zm15.441,0v-8.19h5.549v8.19Zm18.683-20.837c.224.777.42,1.6.619,2.6l.079.4H755.234l.463-.55a27.023,27.023,0,0,0,5.22-9.178l.08-.221h14.811v1.934c0,.995,0,1.855-3.776,1.855-.338,0-.694-.01-1.06-.025a2.5,2.5,0,0,0-2.511,3.189Zm-4.844-26.284V11.332h12.191v3.789Zm-.843,11.52.047-.375c.07-.557.124-.948.188-1.411s.127-.906.211-1.628l.035-.3h12.553v3.709Zm2.763,35.6v-8.19h5.87v8.19Zm-27.81-38.11V28.8h-8.35V24.132Zm.08-12.081V16.72h-8.43V12.051Z"/><path class="cls-1" d="M865.216,25.222c-1.65.093-3.634.139-6.063.139H843.287l.011-.346c.029-.994.06-1.787.1-2.468a2.5,2.5,0,0,0-2.5-2.627h-6.28a2.5,2.5,0,0,0-2.5,2.614c.063,1.375.089,3.1.089,5.772V42.161h-9.775c-1.786,0-3.069-.021-4.158-.069a2.5,2.5,0,0,0-2.609,2.584c.041,1.2.062,2.522.062,4.031v16.08c0,2.774-.065,5.185-.193,7.165a2.5,2.5,0,0,0,2.5,2.661h6.607a2.5,2.5,0,0,0,2.5-2.5v-.54h25.471v.62a2.5,2.5,0,0,0,2.5,2.5h6.786a2.5,2.5,0,0,0,2.494-2.669c-.147-2.183-.21-4.563-.21-7.957v-13.6c0-1.816.016-3.767.13-5.727a2.5,2.5,0,0,0-.714-1.9,2.467,2.467,0,0,0-1.886-.745c-1.076.044-2.358.064-4.155.064H843.3V35.732h16.256c1.809,0,3.711.06,5.654.177a2.5,2.5,0,0,0,2.651-2.5V27.718a2.5,2.5,0,0,0-2.642-2.5ZM827.137,61.2v-8.51h25.471V61.2Z"/><path class="cls-1" d="M868.51,7.187a2.5,2.5,0,0,0-1.868-.673c-2.213.139-4.925.206-8.289.206H840.5V3.986c0-.52.006-.984.019-1.41A2.5,2.5,0,0,0,838.017,0h-6.929a2.5,2.5,0,0,0-2.5,2.578c.012.384.018.8.018,1.248V6.72H811.472c-2.554,0-4.994-.064-7.46-.2A2.5,2.5,0,0,0,801.379,9.1c.073,2.417.108,5.369.108,9.29,0,24.983-1.437,35.91-5.912,44.968a2.5,2.5,0,0,0,.682,3.062,37.063,37.063,0,0,1,5.413,5.28,2.5,2.5,0,0,0,1.911.889,2.623,2.623,0,0,0,.318-.02,2.5,2.5,0,0,0,1.937-1.4c5.254-10.986,7.3-24.954,7.3-49.818V17.492h45.456c2.44,0,5.385.078,8.078.215a2.5,2.5,0,0,0,2.627-2.5v-6.2A2.5,2.5,0,0,0,868.51,7.187Z"/><path class="cls-2" d="M41.6,35.384A17.171,17.171,0,0,0,50.633,20.2,16.346,16.346,0,0,0,41.475,5.105C36.419,2.467,29.568,2.129,24.166,2.129H3.5A3.5,3.5,0,0,0,0,5.629V68.964a3.5,3.5,0,0,0,3.5,3.5H28.866C52.3,72.464,54.833,58.151,54.833,52,54.833,44.085,49.916,37.958,41.6,35.384ZM23.066,30.031H17.431V15.461h6.035c8.806,0,9.935,3.813,9.935,7.134C33.4,24.821,33.4,30.031,23.066,30.031ZM17.431,42.562h8.235C33.254,42.562,37.1,45.3,37.1,50.7s-3.848,8.134-11.436,8.134H17.431Z"/><path class="cls-2" d="M100.065,1.029C77.774,1.029,62.8,15.644,62.8,37.4c0,21.693,14.976,36.268,37.267,36.268S137.333,59.089,137.333,37.4C137.333,15.644,122.356,1.029,100.065,1.029Zm0,56.9C88.38,57.932,80.529,49.519,80.529,37c0-12.462,7.851-20.835,19.536-20.835S119.6,24.534,119.6,37C119.6,49.519,111.751,57.932,100.065,57.932Z"/><path class="cls-2" d="M182.865,1.029C160.574,1.029,145.6,15.644,145.6,37.4c0,21.693,14.976,36.268,37.267,36.268S220.133,59.089,220.133,37.4C220.133,15.644,205.156,1.029,182.865,1.029Zm0,56.9c-11.685,0-19.536-8.413-19.536-20.936,0-12.462,7.851-20.835,19.536-20.835S202.4,24.534,202.4,37C202.4,49.519,194.551,57.932,182.865,57.932Z"/><path class="cls-2" d="M265.693,30.364,285.5,7.946a3.5,3.5,0,0,0-2.623-5.817h-11.6a3.5,3.5,0,0,0-2.673,1.24L249.329,26.178V5.629a3.5,3.5,0,0,0-3.5-3.5H235.4a3.5,3.5,0,0,0-3.5,3.5V68.964a3.5,3.5,0,0,0,3.5,3.5h10.431a3.5,3.5,0,0,0,3.5-3.5V49.353l4.727-5.243,16.013,26.656a3.517,3.517,0,0,0,3,1.7h12.676a3.5,3.5,0,0,0,2.966-5.358Z"/><path class="cls-2" d="M339.863,2.129H318a3.5,3.5,0,0,0-3.5,3.5V68.964a3.5,3.5,0,0,0,3.5,3.5h10.53a3.5,3.5,0,0,0,3.5-3.5v-22h7.836c16.439,0,25.866-8.189,25.866-22.467C365.729,10.281,356.3,2.129,339.863,2.129ZM348,24.5c0,5.891-3.316,8.635-10.436,8.635h-5.635V15.961h5.635C344.683,15.961,348,18.673,348,24.5Z"/><path class="cls-2" d="M414.128,57.732h-20.4V5.629a3.5,3.5,0,0,0-3.5-3.5H379.8a3.5,3.5,0,0,0-3.5,3.5V68.964a3.5,3.5,0,0,0,3.5,3.5h34.332a3.5,3.5,0,0,0,3.5-3.5V61.232A3.5,3.5,0,0,0,414.128,57.732Z"/><path class="cls-2" d="M469.675,4.3A3.515,3.515,0,0,0,466.4,2.029H453.522A3.515,3.515,0,0,0,450.247,4.3L426.379,67.731a3.5,3.5,0,0,0,3.275,4.733h10.7a3.5,3.5,0,0,0,3.3-2.337l4.075-11.564h23.661l4.076,11.565a3.5,3.5,0,0,0,3.3,2.336h11.5a3.5,3.5,0,0,0,3.275-4.733Zm-2.448,40.335H451.9l7.666-22.106Z"/><path class="cls-2" d="M556.6,54.3h0a3.5,3.5,0,0,0-5.29-1.44,25.66,25.66,0,0,1-15.449,4.778c-11.984,0-20.036-8.252-20.036-20.536,0-12.535,7.864-20.635,20.036-20.635a26.882,26.882,0,0,1,14.571,4.683,3.522,3.522,0,0,0,3.033.446,3.483,3.483,0,0,0,2.221-2.113l2.911-7.8a3.522,3.522,0,0,0-1.172-4.018c-3.233-2.439-10.45-6.53-22.464-6.53-22.052,0-36.867,14.574-36.867,36.267s14.815,36.268,36.867,36.268c9.778,0,17.8-2.739,23.855-8.141a3.5,3.5,0,0,0,.887-3.99Z"/><path class="cls-2" d="M616.025,58.032h-26V43.363h23.5a3.5,3.5,0,0,0,3.5-3.5V32.631a3.5,3.5,0,0,0-3.5-3.5h-23.5V16.361h25.1a3.5,3.5,0,0,0,3.5-3.5V5.629a3.5,3.5,0,0,0-3.5-3.5H576.093a3.5,3.5,0,0,0-3.5,3.5V68.964a3.5,3.5,0,0,0,3.5,3.5h39.932a3.5,3.5,0,0,0,3.5-3.5V61.532A3.5,3.5,0,0,0,616.025,58.032Z"/></g></g></svg>