<svg xmlns="http://www.w3.org/2000/svg" viewBox="0 0 1060.954 244.689"><defs><style>.cls-1{fill:#231815;}.cls-2{fill:#fff;}.cls-3{fill:#4ea936;}</style></defs><title> アセット 82</title><g id="レイヤー_2" data-name="レイヤー 2"><g id="レイヤー_3" data-name="レイヤー 3"><path class="cls-1" d="M1060.189,149.639a2.622,2.622,0,0,0-1.859-.773h-38.162l-.612-.612V129.728l.611-.611h35.03a2.624,2.624,0,0,0,2.624-2.624V113.739a2.624,2.624,0,0,0-2.624-2.624h-35.1l-.607-.535,0-1.3v-13.1l.611-.611h38.172a2.624,2.624,0,0,0,2.624-2.624V80.2a2.624,2.624,0,0,0-2.624-2.624H998.5a2.624,2.624,0,0,0-2.624,2.624v84.243a2.624,2.624,0,0,0,2.624,2.624h59.774a2.624,2.624,0,0,0,2.624-2.613l.054-12.949A2.629,2.629,0,0,0,1060.189,149.639Z"/><path class="cls-1" d="M316.45,124.836a25.338,25.338,0,0,0-12.992-7.03l-.092-.108a22.366,22.366,0,0,0,8.865-7.59,21.077,21.077,0,0,0,1.026-21.519l-.034-.06a17.785,17.785,0,0,0-7.754-7.069,33.247,33.247,0,0,0-9.8-3.163c-.041-.007-.082-.012-.123-.016a120.107,120.107,0,0,0-15.664-.7h-32.22a2.624,2.624,0,0,0-2.624,2.624v84.243a2.624,2.624,0,0,0,2.624,2.624h36.4q.688.015,1.377.014a64.546,64.546,0,0,0,14.587-1.666l.076-.02a33.373,33.373,0,0,0,11.656-5.679,24.252,24.252,0,0,0,7.255-8.547,25.334,25.334,0,0,0,2.731-11.6v-.049a20.326,20.326,0,0,0-5.2-14.586C316.511,124.9,316.481,124.867,316.45,124.836Zm-25.807-16.96-.028.059a6.807,6.807,0,0,1-3.788,3.236q-.078.027-.156.06a15.781,15.781,0,0,1-5.624,1.225l-.09,0c-2.535.167-5.606.167-9.163.167h-2.469l-.612-.612V95.459l.612-.611H280.78a18.027,18.027,0,0,1,5.938,1c.036.013.073.025.11.036a6.253,6.253,0,0,1,3.66,2.909l.02.036a9.305,9.305,0,0,1,1.028,4.174A11.927,11.927,0,0,1,290.643,107.876ZM268.908,149.21V129.34l.611-.611h13.523l.369,0a28.75,28.75,0,0,1,6.778.8c.022.006.044.01.066.015a9.308,9.308,0,0,1,5.238,3.213l.052.074a10.422,10.422,0,0,1,1.524,6.1c0,.065,0,.131,0,.2a11.071,11.071,0,0,1-1.311,5.4l-.027.048a8.808,8.808,0,0,1-4.562,3.721c-.036.012-.073.027-.109.041a19.91,19.91,0,0,1-7.423,1.481H269.519Z"/><path class="cls-1" d="M374.822,75.725h-.015c-14.176.082-25.508,4.342-33.682,12.663s-12.315,19.792-12.315,34.09c-.065,14.079,4.029,25.459,12.168,33.826s19.528,12.615,33.832,12.615h.412c14.081,0,25.325-4.2,33.42-12.493,8.172-8.367,12.315-19.788,12.315-33.946,0-14.385-4.152-25.9-12.341-34.216S389.056,75.725,374.822,75.725ZM355.2,135.813a43.028,43.028,0,0,1-1.809-13.269c0-.044,0-.088,0-.132a44.364,44.364,0,0,1,1.689-13.513,24.87,24.87,0,0,1,4.8-9.052,19.161,19.161,0,0,1,6.838-4.936,20.806,20.806,0,0,1,7.833-1.526h.217a21.075,21.075,0,0,1,8.006,1.572,17.633,17.633,0,0,1,6.806,5.027,25.808,25.808,0,0,1,4.782,8.87,43.456,43.456,0,0,1,1.832,13.382c0,.032,0,.065,0,.1a45.781,45.781,0,0,1-1.591,12.759,25.964,25.964,0,0,1-4.789,9.384,17.825,17.825,0,0,1-6.685,5.273,21.106,21.106,0,0,1-16.357-.014,17.908,17.908,0,0,1-6.784-5.027A25.945,25.945,0,0,1,355.2,135.813Z"/><path class="cls-1" d="M475.67,75.725c-14.258,0-25.632,4.219-33.807,12.541s-12.314,19.787-12.314,34.094c.032,14.157,4.175,25.577,12.313,33.944s19.521,12.615,33.808,12.615h.412c14.08,0,25.324-4.2,33.419-12.493,8.172-8.367,12.315-19.788,12.315-33.946,0-14.386-4.144-25.9-12.315-34.215S489.944,75.725,475.67,75.725ZM456.177,135.69a43.69,43.69,0,0,1-1.9-13.146c0-.024,0-.049,0-.072A43.487,43.487,0,0,1,456.18,108.9a24.384,24.384,0,0,1,4.771-9.023,18.86,18.86,0,0,1,6.664-4.842,20.818,20.818,0,0,1,7.829-1.524h.223a21.069,21.069,0,0,1,8,1.572,17.838,17.838,0,0,1,6.807,5.027,25.825,25.825,0,0,1,4.784,8.871,42.788,42.788,0,0,1,1.831,13.377v.1a45.888,45.888,0,0,1-1.591,12.757,25.929,25.929,0,0,1-4.429,8.924,2.594,2.594,0,0,0-.428.423,18.038,18.038,0,0,1-6.546,5.068,21.175,21.175,0,0,1-16.38-.014,17.648,17.648,0,0,1-6.759-5.027A25.948,25.948,0,0,1,456.177,135.69Z"/><path class="cls-1" d="M580.32,119.468l.021-.844L611.392,81.9a2.624,2.624,0,0,0-2-4.318H588.607a2.623,2.623,0,0,0-2.059,1l-29.864,37.834-.307-.106V80.2a2.624,2.624,0,0,0-2.624-2.624H535.226A2.624,2.624,0,0,0,532.6,80.2v84.243a2.624,2.624,0,0,0,2.624,2.624h18.527a2.624,2.624,0,0,0,2.624-2.624V138.156l.178-.5,4.218-5.2.824.017,25.041,33.547a2.622,2.622,0,0,0,2.1,1.055h22.57a2.624,2.624,0,0,0,2.087-4.215Z"/><path class="cls-1" d="M719.344,83.467a33.76,33.76,0,0,0-10.406-4.448A60.92,60.92,0,0,0,695.7,77.562c-.366,0-.733,0-1.091.01H659.176a2.624,2.624,0,0,0-2.624,2.624v84.243a2.624,2.624,0,0,0,2.624,2.624H677.7a2.624,2.624,0,0,0,2.624-2.624v-25.6l.611-.611H694.1a43.254,43.254,0,0,0,16.265-2.683l.087-.034a36.069,36.069,0,0,0,11.945-8.021,26.254,26.254,0,0,0,6.076-9.719,33.925,33.925,0,0,0,2.1-11.806A28.862,28.862,0,0,0,727.7,92.64,23.863,23.863,0,0,0,719.344,83.467Zm-13.323,22.981v.1a18.627,18.627,0,0,1-.959,6.252A10.644,10.644,0,0,1,702,117.134a13.452,13.452,0,0,1-6.082,2.728,54.22,54.22,0,0,1-8.706.707c-.268,0-.536,0-.814-.006h-5.466l-.611-.611v-24.3l.611-.612h2.835c2.139,0,4,.047,5.678.088,1.242.031,2.347.058,3.319.059h.05a21.484,21.484,0,0,1,6.772,1.544,10.57,10.57,0,0,1,4.5,3.618A10.079,10.079,0,0,1,706.021,106.448Z"/><path class="cls-1" d="M802.434,148.987H764.651l-.611-.611V80.2a2.624,2.624,0,0,0-2.624-2.624H742.865a2.624,2.624,0,0,0-2.624,2.624v84.243a2.624,2.624,0,0,0,2.624,2.624h59.569a2.624,2.624,0,0,0,2.624-2.624V151.611A2.624,2.624,0,0,0,802.434,148.987Z"/><path class="cls-1" d="M872.952,79.287a2.623,2.623,0,0,0-2.462-1.715H847.2a2.625,2.625,0,0,0-2.462,1.714l-31.124,84.243a2.625,2.625,0,0,0,2.461,3.534h18.4a2.624,2.624,0,0,0,2.481-1.77l5.389-15.66.665-.473h31.08l.665.473,5.389,15.66a2.626,2.626,0,0,0,2.482,1.77h18.962a2.623,2.623,0,0,0,2.461-3.533Zm-14.227,23.46,9.84,28.616-.462.647h-19.1l-.462-.647,9.862-28.617Z"/><path class="cls-1" d="M980.713,139.735a2.628,2.628,0,0,0-2.8.375c-.819.691-1.8,1.492-2.978,2.424a52.084,52.084,0,0,1-5.341,3.6c-.017.009-.033.019-.049.029a31.866,31.866,0,0,1-7.391,3.336,27.819,27.819,0,0,1-8.116,1.221,28.331,28.331,0,0,1-8.653-1.391,21.355,21.355,0,0,1-7.9-4.544,23.835,23.835,0,0,1-5.8-8.6,35.518,35.518,0,0,1-2.4-13.675v-.121a36.518,36.518,0,0,1,2.141-13.3,24.265,24.265,0,0,1,5.56-8.784,21.843,21.843,0,0,1,7.861-4.909,27.283,27.283,0,0,1,8.9-1.485h.462a24.978,24.978,0,0,1,7.627,1.194,40.45,40.45,0,0,1,7,3.177,51.456,51.456,0,0,1,5.68,3.82c1.107.814,2.175,1.656,3.265,2.573a2.625,2.625,0,0,0,4.313-2.008v-17.7A2.623,2.623,0,0,0,980.58,82.6c-1.494-.7-3.077-1.405-4.428-2l-.062-.026a59.568,59.568,0,0,0-7.366-2.456,68.817,68.817,0,0,0-8.363-1.644,71.3,71.3,0,0,0-9.509-.64l-.785,0a52.852,52.852,0,0,0-18.649,3.39,39.5,39.5,0,0,0-14.478,9.2,41.207,41.207,0,0,0-9.266,14.787,55.725,55.725,0,0,0-3.169,19.288,56,56,0,0,0,3.317,19.98,37.925,37.925,0,0,0,23.969,23.356,55.132,55.132,0,0,0,17.819,2.95l.545,0q.708.015,1.414.015a65.252,65.252,0,0,0,9.312-.666l.084-.014a79.175,79.175,0,0,0,8.182-1.91,52.14,52.14,0,0,0,6.418-2.288l5.1-2.237a2.624,2.624,0,0,0,1.57-2.4V142.115A2.626,2.626,0,0,0,980.713,139.735Z"/><path class="cls-2" d="M167.268,18.15c-.413-.24-.946-.321-1.413-.563-.431-.223-.909-.387-1.379-.61-.442-.21-.91-.39-1.382-.6-.451-.2-.844-.559-1.318-.756-.458-.191-.912-.415-1.388-.6s-.954-.315-1.431-.493-.984-.232-1.462-.4-.912-.444-1.391-.6-.989-.219-1.47-.372-.908-.482-1.39-.627-.989-.227-1.472-.364-1-.2-1.48-.327-.942-.424-1.426-.543-1.028-.084-1.512-.192c-.5-.111-.969-.354-1.452-.449-.51-.1-1.022-.135-1.5-.215-.518-.086-1.027-.114-1.507-.175-.527-.066-1.024-.214-1.5-.247a13.563,13.563,0,0,0-1.512.17,10.562,10.562,0,0,0-1.522-.063c-.736.171-.725.222-1.461.4s-.689.369-1.425.543-.786-.04-1.521.134-.714.267-1.449.441-.74.155-1.475.329-.729.2-1.464.376-.711.28-1.446.454-.74.155-1.476.329-.747.125-1.483.3-.722.233-1.459.407-.78-.012-1.516.162-.732.2-1.468.372-.731.2-1.468.377-.769.044-1.507.218-.692.364-1.43.538-.762.069-1.5.243-.73.2-1.467.376-.757.086-1.494.26-.718.25-1.455.424-.729.2-1.465.378-.719.247-1.455.42-.742.153-1.478.326-.733.189-1.47.363-.767.043-1.5.217-.685.392-1.422.566-.79-.048-1.528.126-.711.289-1.449.463-.78-.007-1.518.167-.695.355-1.432.529-.734.189-1.471.363-.766.052-1.5.226-.729.2-1.466.378-.757.091-1.493.265-.692.366-1.429.539-.787-.036-1.525.138-.732.2-1.469.372-.687.394-1.425.568-.749.128-1.487.3-.715.27-1.452.445-.8-.1-1.54.072-.73.205-1.467.379-.689.379-1.427.553-.728.212-1.466.386-.809-.125-1.547.05-.676.437-1.414.611-.766.057-1.5.232-.71.289-1.448.463-.752.112-1.49.286-.769.041-1.507.215-.684.405-1.422.579-.8-.1-1.535.075-.682.4-1.417.573-.759.078-1.5.252-.746.138-1.483.312-.746.145-1.485.32-.752.113-1.49.287-.711.281-1.448.455-.725.221-1.462.395-.773.017-1.51.191-.741.159-1.478.333-.686.4-1.424.57-.76.088-1.5.262-.73.207-1.468.382l-1.475.348c-.737.175-.732.2-1.47.37s-.72.257-1.459.431-.8-.1-1.543.072-.7.315-1.443.49-.747.14-1.486.315-.763.075-1.5.249-.673.451-1.412.625-.76.088-1.5.262-.782,0-1.521.169-.731.215-1.471.389-.739.166-1.477.34-.75.125-1.488.3-.733.2-1.473.379-.732.208-1.471.383-.734.2-1.475.371-.7.325-1.446.5-.729.218-1.469.393-.772.049-1.513.224-.732.221-1.475.4-1.278-.435-1.414.316.566.38,1.2.8.638.412,1.273.828.648.4,1.284.812.678.354,1.315.77.559.535,1.2.951.623.435,1.26.851.666.37,1.3.786.565.528,1.2.944.723.284,1.36.7.536.571,1.174.988.641.405,1.275.819.652.4,1.289.812.753.238,1.389.653.618.444,1.254.86.636.421,1.274.838.542.561,1.18.977.692.333,1.331.75.684.348,1.323.765.559.538,1.2.954.73.278,1.37.7.58.51,1.221.929a4.959,4.959,0,0,0,1.33.721c.7.278.494.066,1.452-.176.409-.1.842-.455,1.409-.6.444-.112.974-.078,1.509-.213.457-.115.972-.138,1.493-.27.464-.117.892-.487,1.405-.617.47-.118,1.024.011,1.533-.118.473-.119.965-.237,1.471-.365.476-.12.923-.415,1.427-.543.478-.12.984-.18,1.485-.307.48-.121.992-.156,1.492-.282.48-.122.964-.269,1.463-.395.481-.122.977-.224,1.475-.35.482-.122.956-.307,1.453-.433.482-.122.966-.266,1.461-.391s.983-.2,1.478-.329.945-.353,1.44-.478.975-.235,1.47-.36.972-.249,1.466-.374.954-.326,1.448-.45,1-.165,1.488-.29,1-.14,1.5-.265.956-.324,1.449-.448.945-.368,1.437-.493,1-.155,1.492-.279,1.006-.131,1.5-.256l1.469-.372c.488-.123.967-.288,1.459-.413s.966-.29,1.458-.415.966-.3,1.458-.421.965-.3,1.457-.419.977-.254,1.468-.379.966-.281,1.456-.405.971-.263,1.461-.387.989-.2,1.479-.319.973-.261,1.463-.385.989-.2,1.48-.325.979-.24,1.469-.364.957-.331,1.448-.455,1-.141,1.5-.266,1-.164,1.491-.288.982-.23,1.472-.354.988-.212,1.479-.336.952-.355,1.443-.479.971-.289,1.461-.413.955-.354,1.446-.479,1.032-.055,1.523-.18.969-.3,1.46-.43l1.475-.374c.493-.125,1-.2,1.488-.326s1-.182,1.491-.306.927-.468,1.418-.592,1.052.023,1.542-.1.935-.439,1.426-.563.959-.344,1.45-.468,1.022-.095,1.513-.219,1-.175,1.492-.3.977-.279,1.467-.4,1-.2,1.485-.329.992-.221,1.482-.345.925-.483,1.414-.607.99-.23,1.479-.353.974-.293,1.463-.416,1.055.026,1.544-.1.919-.507,1.408-.631,1.047,0,1.535-.127.974-.293,1.462-.416.972-.3,1.46-.423.982-.26,1.47-.383.949-.389,1.436-.512.987-.24,1.474-.363.975-.286,1.461-.409,1.052.015,1.537-.107.919-.51,1.4-.633,1-.2,1.484-.323,1-.206,1.482-.329.989-.243,1.473-.366,1-.222,1.479-.344.979-.291,1.462-.413c.5-.127,1-.187,1.488-.309.5-.126.96-.369,1.441-.491.5-.126.978-.3,1.457-.421.5-.127,1.043-.048,1.52-.169.5-.127,1-.228,1.476-.348.506-.128,1-.228,1.476-.348.511-.129,1.01-.224,1.482-.344.514-.13.932-.541,1.4-.659.522-.132,1.04-.144,1.5-.26.533-.134,1.021-.261,1.464-.373.566-.143,1.071-.212,1.479-.316.949-.24,1.543-.445,1.548-.446-.207-.269-.742-.56-1.269-1.051-.354-.33-.639-.841-1.091-1.225-.394-.335-.92-.562-1.363-.912-.419-.332-.827-.7-1.269-1.026s-.874-.666-1.317-.963C168.134,18.783,167.714,18.409,167.268,18.15Z"/><path class="cls-2" d="M12.02,214.324c.352.673.594.4,1.217.838s.655.387,1.278.821.477.641,1.1,1.075.7.324,1.321.758.58.5,1.2.932.685.346,1.308.78.521.58,1.144,1.014.737.27,1.361.705.639.412,1.263.847.66.382,1.283.816.495.62,1.119,1.055.643.4,1.264.835.523.58,1.147,1.015.748.254,1.371.688.558.526,1.181.96.693.337,1.318.772.7.329,1.321.764.478.646,1.1,1.081.654.395,1.279.831.693.337,1.318.772.679.358,1.3.794.584.5,1.211.937.464,1.2,1.145.851.035-.654.035-1.411-.021-.756-.02-1.513-.134-.756-.134-1.512.241-.756.241-1.512.037-.755.038-1.511-.267-.755-.266-1.511.2-.754.2-1.51-.2-.755-.194-1.509.074-.755.074-1.51-.043-.754-.042-1.509.078-.754.078-1.509-.042-.754-.041-1.508.125-.755.125-1.509.052-.754.053-1.509-.107-.754-.107-1.509.049-.754.05-1.508-.025-.755-.025-1.509-.029-.755-.029-1.51-.05-.755-.05-1.51.084-.755.084-1.51-.041-.755-.04-1.51.062-.756.063-1.512.1-.755.1-1.511-.017-.757-.016-1.513-.085-.757-.085-1.514.063-.757.064-1.514-.016-.758-.016-1.516-.149-.757-.148-1.514.139-.757.14-1.514-.037-.756-.037-1.513-.188-.756-.187-1.512.113-.756.113-1.512-.064-.756-.063-1.512.114-.755.115-1.511-.16-.756-.159-1.511.045-.756.046-1.511.194-.756.194-1.511-.162-.756-.162-1.512.095-.755.095-1.511.15-.756.15-1.512-.2-.756-.2-1.512-.005-.757,0-1.513.107-.757.108-1.514-.091-.758-.09-1.515.009-.758.01-1.516-.09-.758-.09-1.516.106-.757.107-1.514-.114-.757-.114-1.514.111-.757.111-1.513-.1-.757-.1-1.513.007-.757.008-1.513.056-.756.057-1.513-.086-.756-.085-1.512.2-.757.2-1.513-.042-.757-.041-1.514-.116-.757-.116-1.514.214-.758.215-1.515-.245-.759-.244-1.517-.056-.758-.055-1.516.15-.757.15-1.515.174-.757.174-1.514.025-.757.025-1.514-.126-.757-.126-1.514.026-.757.026-1.514.066-.757.067-1.514-.1-.758-.1-1.515-.012-.758-.012-1.516-.119-.758-.118-1.517.294-.758.294-1.516-.06-.758-.059-1.515-.081-.758-.081-1.515-.188-.757-.188-1.515.045-.757.045-1.515.126-.758.126-1.515.094-.759.094-1.517-.254-.758-.254-1.517.07-.758.071-1.516.1-.757.1-1.515-.054-.758-.053-1.516.009-.758.01-1.516.156-.758.156-1.517-.009-.758-.009-1.516-.252-.756-.251-1.512.084-.756.085-1.512.051-.758.052-1.515-.095-.759-.095-1.518.1-.758.1-1.516-.143-.757-.142-1.513.206-.757.207-1.513-.242-.757-.242-1.513.129-.758.13-1.515-.072-.758-.072-1.516.265-.759.265-1.518-.207-.759-.206-1.517-.012-.757-.011-1.515-.128-.758-.128-1.515.172-.759.173-1.519-.036-.759-.035-1.518-.126-.758-.126-1.516.292-.759.293-1.518-.094-.76-.094-1.519.142-.759.142-1.518-.05-.76-.05-1.519-.172-.76-.172-1.519-.011-.76-.011-1.52.02-.758.02-1.516-.046-.758-.046-1.516-.074-.76-.074-1.521.323-.759.324-1.518-.036-.76-.035-1.52-.154-.761-.154-1.522.015-.76.016-1.52-.082-.762-.082-1.524.1-.763.1-1.526.215-.772-.151-1.442-.5-.49-1.15-.913-.613-.471-1.259-.893-.611-.474-1.257-.9-.67-.384-1.316-.806-.651-.416-1.3-.838-.672-.383-1.319-.8-.563-.549-1.209-.971-.65-.417-1.3-.839-.722-.308-1.37-.731-.557-.559-1.2-.981-.762-.247-1.41-.67-.575-.532-1.222-.954-.729-.3-1.376-.721-.547-.573-1.193-.995-.745-.269-1.391-.691-.6-.491-1.252-.914-.682-.369-1.329-.792-.646-.425-1.293-.848-.538-.593-1.187-1.016-.687-.363-1.334-.786-.8-.2-1.445-.623-.545-.586-1.2-1.011-.711-1.36-1.4-1c-.674.352.056.931.06,1.692s.208.759.212,1.519-.249.762-.244,1.522-.042.76-.038,1.52.3.757.306,1.517-.316.761-.312,1.52.175.758.179,1.517-.164.76-.16,1.519.023.759.027,1.517.084.758.089,1.517.131.758.136,1.516-.072.759-.068,1.518.045.758.049,1.517-.041.758-.036,1.517-.136.759-.132,1.518.1.758.1,1.517-.01.759-.006,1.518.1.758.1,1.517.141.759.145,1.518-.2.76-.194,1.52-.121.76-.117,1.52.18.759.184,1.519.13.76.134,1.521-.181.762-.176,1.523.119.761.123,1.522-.225.763-.221,1.525.139.761.144,1.522.071.761.076,1.522-.223.762-.219,1.523.123.759.127,1.52.086.759.09,1.519.045.76.049,1.52-.168.761-.164,1.521.088.759.092,1.519.029.759.034,1.519-.165.761-.161,1.52.344.758.349,1.518-.226.761-.222,1.521.211.759.215,1.519-.155.761-.151,1.522.2.759.209,1.52-.233.763-.229,1.524-.046.762-.042,1.523.225.761.229,1.523-.023.762-.019,1.524-.2.763-.192,1.524.24.76.244,1.521.031.761.035,1.522-.126.761-.122,1.522-.056.761-.052,1.521.019.761.023,1.521-.1.761-.093,1.522-.038.761-.034,1.522.3.759.307,1.52-.045.761-.041,1.523.1.761.106,1.523-.349.764-.344,1.526.078.762.082,1.524.218.761.222,1.523.038.761.043,1.522-.292.763-.288,1.524.1.761.1,1.522.173.76.177,1.521.028.761.032,1.523-.023.761-.019,1.523-.112.763-.107,1.525.161.762.165,1.524-.2.764-.2,1.526-.094.762-.089,1.524.132.761.137,1.523.049.761.054,1.522-.094.763-.09,1.524.114.762.119,1.524-.075.763-.07,1.525.154.762.159,1.524-.212.764-.208,1.526.08.761.084,1.523.083.762.087,1.524.006.762.011,1.524-.191.764-.187,1.527.252.761.256,1.523.02.76.024,1.52-.23.762-.226,1.522.237.76.241,1.522-.187.765-.182,1.528.174.761.179,1.522-.191.763-.187,1.524.215.759.219,1.52-.079.761-.075,1.522-.147.762-.143,1.523.087.762.091,1.525.183.762.188,1.525-.213.764-.208,1.526.125.761.129,1.523-.057.762-.053,1.524-.08.764-.076,1.527.1.763.1,1.526.118.762.122,1.524-.065.764-.061,1.527-.065.764-.061,1.528-.091.764-.086,1.527.2.762.2,1.526.081.763.086,1.527-.05.764-.045,1.529.065.761.069,1.523-.009.763,0,1.525.077.764.082,1.529-.152.764-.147,1.527-.042.765-.038,1.529.124.765.128,1.53.073.764.077,1.528-.067.766-.062,1.532a8.959,8.959,0,0,1-.072,1.536C11.858,213.594,11.665,213.644,12.02,214.324Z"/><path class="cls-3" d="M182.077,25.628a10.705,10.705,0,0,0-.4-1.458,10.476,10.476,0,0,0-.145-1.482,11.969,11.969,0,0,0-.664-1.332,13.128,13.128,0,0,0-.689-1.3c-.244-.416-.233-1.02-.53-1.432-.281-.39-.636-.76-.964-1.148-.31-.368-.639-.751-.991-1.118-.333-.347-.756-.634-1.125-.981-.351-.33-.68-.709-1.064-1.04-.365-.315-.983-.343-1.378-.66-.378-.3-.653-.749-1.058-1.053-.386-.291-.86-.476-1.271-.769s-.641-.8-1.059-1.083-.878-.457-1.3-.734c-.4-.258-.773-.554-1.184-.8s-.9-.328-1.321-.556-.744-.624-1.168-.842-.812-.5-1.239-.712-.917-.293-1.346-.5-.913-.295-1.341-.5c0,0,.108-.062.042-.088-.472-.188-.843-.565-1.273-.736-.473-.188-1.048-.047-1.475-.215-.477-.189-.89-.458-1.316-.624-.479-.187-.9-.43-1.326-.592-.483-.185-1.011-.148-1.436-.305-.486-.178-.9-.435-1.332-.583-.484-.167-.934-.328-1.375-.466-.473-.147-.971-.122-1.431-.248s-.827-.6-1.31-.715c-.447-.107-.967.028-1.465-.08-.444-.095-.851-.5-1.356-.6S145.727.787,145.218.7,144.159.675,143.65.6c-.525-.073-1.053-.026-1.562-.081-.529-.056-1.015-.482-1.524-.52-.534-.041-1.083.379-1.591.357-.538-.024-1.05-.285-1.553-.29-.543-.005-1.067-.038-1.564-.024-.55.017-1.058.259-1.545.3-.562.042-1.122-.272-1.587-.206-.16.022-.775.162-1.392.261a6.121,6.121,0,0,0-1.342.5c-.735.177-.733.189-1.468.365s-.775.014-1.51.19-.691.363-1.426.54-.714.264-1.449.441-.833-.233-1.568-.057-.709.286-1.444.462-.726.215-1.461.392-.694.348-1.429.525-.8-.073-1.53.1-.679.412-1.414.588-.724.229-1.459.4-.775.016-1.511.192-.75.119-1.487.3-.759.084-1.5.261-.734.191-1.472.368-.7.322-1.439.5-.726.222-1.463.4-.8-.1-1.539.078-.665.47-1.4.647-.748.127-1.483.3-.794-.063-1.529.114-.651.534-1.386.71-.772.029-1.508.205-.765.055-1.5.231-.657.506-1.393.683-.837-.24-1.573-.063-.629.628-1.366.8-.833-.219-1.57-.042-.753.112-1.491.289-.685.393-1.422.57-.76.079-1.5.256-.723.235-1.459.411-.768.048-1.5.224-.716.261-1.453.437-.746.136-1.483.312-.675.433-1.412.61-.739.173-1.476.349-.757.1-1.5.274-.789-.038-1.526.139-.652.535-1.389.711-.832-.219-1.568-.042-.659.5-1.4.68-.811-.135-1.548.041-.693.364-1.43.54-.779.006-1.517.183-.653.528-1.391.705-.784-.015-1.521.162-.725.227-1.462.4-.756.1-1.493.278-.681.413-1.418.59-.758.094-1.5.271-.793-.068-1.527.109-.687.378-1.422.554-.746.134-1.482.311-.792-.052-1.529.125-.669.467-1.408.644-.7.323-1.439.5-.756.1-1.492.273-.744.144-1.48.321-.793-.061-1.529.115-.687.386-1.424.562-.81-.126-1.548.051-.645.565-1.384.742-.743.156-1.48.333-.827-.2-1.564-.022-.683.407-1.42.584-.743.157-1.482.334-.73.213-1.469.39-.7.34-1.436.517-.815-.143-1.553.034-.695.363-1.434.54-.753.118-1.491.295-.724.244-1.463.421-.8-.07-1.537.108-.721.252-1.461.429-.7.351-1.433.528-.738.172-1.476.349-.777.023-1.517.2-.679.426-1.417.6-.8-.079-1.541.1-.742.172-1.483.349-.71.3-1.449.478-.8-.074-1.543.1-.731.223-1.474.4-.682.428-1.424.608a5.9,5.9,0,0,0-.912.223c-.094.04-.1.258-.192.3a5.624,5.624,0,0,0-.541.262c-.1.064-.242.054-.338.123-.152.11-.191.343-.332.466-.091.08-.249.074-.336.16-.131.13-.219.284-.337.425-.078.092-.143.183-.215.28-.111.151-.131.342-.228.5-.06.1-.132.179-.186.283a5.134,5.134,0,0,0-.235.524c-.04.1-.462.06-.5.163-.079.236.079.55.03.8-.011.058-.237.078-.246.136l.142.03c-.051.309.177.625.175.931,0,.017.009.031.009.048,0,.757-.176.758-.173,1.515s-.225.758-.222,1.515.038.756.041,1.513.176.755.179,1.511S.4,43.387.4,44.143.128,44.9.131,45.655,0,46.411,0,47.167s.007.755.01,1.51.033.755.036,1.511.01.755.013,1.51.091.754.093,1.509-.1.756-.1,1.511.021.755.024,1.51-.044.755-.041,1.51.034.755.037,1.51-.006.755,0,1.51.361.754.364,1.509-.378.757-.375,1.513.4.754.4,1.51S.115,66.047.118,66.8s.323.755.326,1.511-.273.758-.271,1.515.158.756.161,1.513-.253.758-.25,1.516.454.756.457,1.514-.208.759-.2,1.517.114.758.117,1.516-.3.758-.294,1.516S.5,79.677.5,80.434s.045.757.048,1.513S.4,82.705.4,83.461s-.185.757-.183,1.514.094.756.1,1.512S.272,87.243.275,88s.256.756.259,1.512.083.756.086,1.512-.264.757-.262,1.513-.09.757-.087,1.513.244.756.247,1.513-.23.757-.227,1.514.166.757.168,1.514-.1.758-.1,1.516-.025.758-.023,1.516.252.758.254,1.516-.054.759-.051,1.517-.249.759-.247,1.517.084.757.087,1.515.13.757.133,1.514-.033.757-.03,1.514.156.757.158,1.514-.091.757-.089,1.514-.115.757-.112,1.514-.156.758-.153,1.515.238.757.241,1.514-.024.758-.021,1.516.119.758.122,1.516-.36.76-.357,1.519.191.758.194,1.516-.091.759-.088,1.517-.056.758-.053,1.516.039.758.042,1.515.342.757.345,1.514S.7,131.173.7,131.93s.075.758.077,1.516S.7,134.2.7,134.962s-.228.759-.225,1.518S.431,137.239.433,138s.071.759.074,1.517.048.759.051,1.517.048.758.051,1.516-.071.758-.068,1.516.182.758.185,1.516-.321.759-.318,1.518.086.758.088,1.517.333.758.335,1.517-.355.76-.352,1.519.122.758.124,1.516-.107.759-.1,1.517-.078.759-.075,1.518.443.757.446,1.516-.4.761-.395,1.52.224.755.227,1.511.082.757.085,1.514.073.758.076,1.516-.1.76-.1,1.52-.243.759-.24,1.518.188.756.191,1.514-.1.757-.095,1.514.2.757.2,1.514-.229.759-.226,1.516.128.759.131,1.518-.019.76-.016,1.52.212.757.215,1.516-.121.759-.119,1.517.13.758.133,1.516-.46.762-.458,1.522.107.759.11,1.518.167.759.17,1.518-.222.76-.22,1.519.435.759.438,1.52-.184.76-.181,1.519.129.76.132,1.521-.39.761-.387,1.521.035.76.037,1.521-.02.759-.018,1.517-.03.759-.028,1.517.318.76.321,1.521.128.76.131,1.52-.377.762-.374,1.523.047.761.05,1.523-.017.76-.015,1.521.26.762.263,1.524-.2.764-.2,1.528.129.763.131,1.527a6.307,6.307,0,0,0,.249,1.368c.1.427.351.833.518,1.3.155.43.235.9.43,1.335s.46.821.675,1.234c.224.432.437.846.671,1.231.265.437.469.863.723,1.2a6.312,6.312,0,0,0,.847,1.134c.622.426.746.244,1.369.669s.563.51,1.184.934l1.243.847c.62.423.7.308,1.319.731s.414.727,1.035,1.151.731.261,1.352.685.662.366,1.284.79.588.476,1.211.9.52.574,1.142,1,.786.182,1.408.606.449.676,1.071,1.1.705.305,1.328.73.526.565,1.149.99.85.089,1.473.514.49.618,1.113,1.042.6.457,1.225.882.682.337,1.3.762l1.247.849c.62.424.633.4,1.254.827s.572.5,1.2.927.656.375,1.278.8.7.307,1.324.731.66.373,1.284.8.376.787,1,1.212.819.14,1.443.565.567.51,1.192.936.684.337,1.307.763.466.66,1.09,1.086.755.239,1.381.666.607.457,1.234.883c.084.056.055.293.141.344.105.061.273.018.381.073.175.088.355.177.536.247.106.041.285-.137.393-.1a5.947,5.947,0,0,0,.573.257c.093.019.187.014.281.029.3.047.592.281.9.281l.011-.04-.009-.294c.085,0,.177.357.262.353a6.2,6.2,0,0,0,1.206-.189l0-.066c.724-.2.507-.127,1.452-.39.405-.112.855-.373,1.416-.529.439-.122.924-.254,1.453-.4.452-.126.949-.215,1.463-.359.46-.128.942-.267,1.449-.408.464-.13.965-.2,1.468-.343.468-.131.88-.522,1.38-.662.471-.131.985-.157,1.483-.3.472-.131,1.011-.073,1.507-.212.474-.132.976-.2,1.471-.34.474-.132.967-.237,1.46-.375.476-.132.9-.486,1.39-.624s.95-.306,1.441-.443,1.015-.072,1.5-.209.939-.348,1.429-.485.939-.351,1.428-.487,1.012-.089,1.5-.225.931-.381,1.42-.518.982-.2,1.47-.337.914-.446,1.4-.582.931-.389,1.418-.525,1.071.11,1.558-.027.922-.422,1.409-.559.926-.408,1.412-.544,1.043,0,1.529-.132.957-.3,1.443-.439.9-.5,1.388-.635.982-.211,1.469-.347.963-.263,1.447-.4,1.027-.041,1.511-.177.866-.618,1.35-.753.953-.308,1.437-.444,1.044.012,1.528-.124.893-.527,1.377-.663,1.048.021,1.532-.115.905-.488,1.389-.624.942-.358,1.426-.5,1.06.059,1.544-.078.859-.651,1.343-.787.987-.2,1.471-.334.94-.369,1.424-.5,1.086.147,1.57.01.973-.258,1.458-.4.971-.267,1.456-.4.953-.334,1.438-.47.873-.623,1.358-.759,1.053.017,1.539-.12.954-.336,1.439-.473.926-.441,1.411-.578,1.011-.131,1.5-.268.956-.324,1.44-.46.934-.4,1.418-.54.987-.219,1.47-.356,1.045-.015,1.528-.152.962-.307,1.445-.444.962-.308,1.445-.445.913-.479,1.4-.616,1.043-.022,1.526-.16.958-.322,1.44-.459.942-.38,1.424-.517.941-.382,1.423-.519.981-.243,1.463-.38.967-.291,1.448-.428.94-.386,1.421-.524,1-.168,1.482-.305.969-.285,1.449-.423.932-.41,1.412-.547,1.05,0,1.529-.141.962-.311,1.441-.448,1.029-.082,1.508-.22.935-.408,1.414-.546l1.451-.417c.49-.141.893-.559,1.371-.7s1.087.112,1.564-.026.969-.3,1.445-.44c.491-.143.941-.395,1.416-.533.492-.143.922-.465,1.4-.6.492-.143.951-.364,1.423-.5.5-.145,1.053-.03,1.525-.169.5-.146.924-.477,1.394-.616.5-.147,1.02-.159,1.488-.3.5-.149.964-.351,1.427-.49.5-.151.931-.47,1.389-.609.509-.154,1.064-.057,1.514-.195.519-.16,1.054-.133,1.492-.27.543-.171.9-.706,1.31-.841.643-.211,1.259,0,1.555-.112.439-.175.778-.64,1.21-.928a9.655,9.655,0,0,0,1.259-.812,13.665,13.665,0,0,0,.939-1.167c.32-.366.656-.731.95-1.142s.372-.924.628-1.355.644-.766.862-1.214.649-.809.828-1.272-.008-1.057.128-1.531.6-.889.684-1.372a12.527,12.527,0,0,0-.09-1.516,13.261,13.261,0,0,0,.332-1.495c.015-.441-.239-.952-.224-1.513.012-.463.242-.959.254-1.5.01-.473-.012-.977,0-1.508.009-.48.036-.983.045-1.508.008-.484-.271-.991-.262-1.511.007-.487.075-.988.083-1.506.007-.488.1-.989.106-1.5.007-.49.257-.989.264-1.5.006-.492-.154-1-.148-1.509.006-.492-.22-1-.214-1.509.006-.493.327-.992.333-1.5,0-.494-.154-1-.149-1.509s.073-1,.079-1.506.2-1,.208-1.505-.177-1-.172-1.51.144-1,.149-1.506-.085-1-.08-1.509.148-1,.153-1.507-.025-1-.021-1.508.011-1,.015-1.509.033-1,.037-1.5-.095-1-.091-1.5-.241-1-.237-1.506.26-1,.264-1.5.086-1,.09-1.5-.349-1-.345-1.508.067-1,.071-1.505-.042-1-.038-1.506-.035-1-.031-1.506.123-1,.127-1.506.2-1,.2-1.506-.23-1-.227-1.508.3-1,.3-1.506-.257-1-.253-1.509.029-1,.032-1.508.215-1,.218-1.506-.368-1.007-.365-1.511,0-1,.006-1.509.322-1,.325-1.506-.233-1.007-.23-1.511.283-1,.286-1.5.088-1,.091-1.5-.436-1.006-.433-1.509.208-1,.21-1.5.249-1,.252-1.5-.108-1-.105-1.508-.184-1.006-.181-1.509.215-1,.218-1.508-.227-1.007-.224-1.51.209-1,.211-1.508-.085-1.006-.082-1.509.23-1,.233-1.509-.056-1.007-.053-1.51-.3-1.009-.3-1.513.265-1.007.267-1.511.089-1.009.091-1.513-.041-1.01-.039-1.514-.07-1.011-.068-1.515-.012-1.009-.009-1.513-.261-1.01-.258-1.514.213-1.009.215-1.513-.054-1.009-.052-1.513-.074-1.01-.072-1.514.184-1.009.187-1.513-.208-1.011-.206-1.515.05-1.01.052-1.514.063-1.01.065-1.514.293-1.01.295-1.514-.1-1.011-.094-1.515.11-1.01.113-1.514.006-1.011.008-1.515-.171-1.011-.169-1.515-.123-1.012-.12-1.515-.15-1.012-.147-1.516.358-1.01.361-1.513-.063-1.012-.061-1.515-.28-1.013-.278-1.516.176-1.011.178-1.514-.067-1.012-.065-1.514.19-1.011.192-1.514-.243-1.013-.241-1.515.22-1.011.222-1.513-.146-1.012-.144-1.514.06-1.012.062-1.514.115-1.011.117-1.512-.037-1.012-.035-1.513.2-1.011.2-1.512,0-1.011.006-1.512-.152-1.012-.15-1.512.168-1.011.17-1.511-.254-1.012-.252-1.511.262-1.01.263-1.509-.067-1.011-.065-1.51-.316-1.011-.315-1.509.09-1.01.092-1.508-.137-1.012-.135-1.509.188-1.011.19-1.508-.034-1.014-.033-1.51c0-.511.31-1.013.311-1.509,0-.512-.165-1.016-.163-1.511,0-.512.163-1.015.165-1.509,0-.513-.232-1.017-.23-1.51,0-.514.025-1.017.027-1.509,0-.514-.1-1.017-.1-1.507,0-.517-.062-1.019-.06-1.507,0-.52.1-1.022.1-1.508,0-.525-.041-1.029-.04-1.513,0-.528-.035-1.031-.033-1.508,0-.535.14-1.038.141-1.506,0-.548-.043-1.049-.042-1.5,0-.582.271-1.084.272-1.5,0-.981-.338-.751-.336-1.5C181.782,25.7,182.078,25.665,182.077,25.628ZM46.243,56a4.718,4.718,0,0,1-1.365-.553c-.619-.4-.518-.56-1.138-.964s-.706-.274-1.327-.679-.629-.392-1.249-.8-.434-.69-1.054-1.1-.648-.362-1.269-.767-.614-.416-1.235-.821-.672-.327-1.292-.732-.587-.457-1.208-.863-.823-.092-1.441-.5-.52-.56-1.141-.965-.692-.3-1.311-.7-.465-.643-1.085-1.047-.683-.314-1.3-.72-.592-.45-1.213-.856-.713-.265-1.335-.671-.514-.573-1.136-.979-.577-.475-1.2-.881-.7-.29-1.321-.7-.694-.3-1.318-.708-1.337-.157-1.192-.888c.148-.746.782.038,1.522-.136s.661-.509,1.4-.684.763-.078,1.5-.253.757-.1,1.5-.277.69-.389,1.43-.564.765-.076,1.5-.251.744-.164,1.486-.339.7-.334,1.446-.509.826.185,1.568.01.685-.414,1.426-.589.813.129,1.553-.046.716-.282,1.456-.457.707-.316,1.448-.491.714-.282,1.455-.457.827.2,1.567.02.637-.614,1.377-.789.8.068,1.538-.107.75-.138,1.49-.312.692-.385,1.433-.56.827.187,1.568.012.732-.218,1.474-.394.682-.431,1.423-.606.739-.188,1.48-.363.78-.012,1.521-.187.7-.363,1.438-.538.719-.263,1.46-.438.838.234,1.578.059.715-.285,1.456-.46.733-.214,1.474-.389.7-.348,1.443-.523.8.074,1.543-.1.686-.411,1.428-.587.729-.227,1.471-.4.779-.014,1.52-.189.755-.118,1.5-.293.763-.083,1.505-.258.738-.19,1.48-.365.708-.32,1.45-.5.731-.22,1.474-.395.806.1,1.548-.076.672-.469,1.414-.645.753-.125,1.495-.3.8.064,1.54-.111.658-.533,1.4-.709.774-.027,1.513-.2.768-.053,1.508-.227.662-.505,1.4-.68.84.241,1.581.066.636-.627,1.379-.8.835.221,1.577.046.756-.111,1.5-.286.689-.392,1.43-.566.763-.078,1.5-.253.728-.234,1.469-.409.773-.046,1.515-.221.723-.259,1.466-.435.752-.134,1.494-.309.681-.432,1.422-.607.743-.171,1.485-.347.762-.095,1.505-.27.793.039,1.536-.137.658-.533,1.4-.708.837.22,1.579.045.667-.5,1.41-.679.817.137,1.56-.038.7-.363,1.443-.539.783,0,1.527-.179.66-.528,1.4-.7.788.017,1.529-.158.73-.225,1.472-.4.763-.1,1.507-.276.687-.412,1.43-.587.764-.093,1.508-.269.8.068,1.547-.108.7-.378,1.44-.554.756-.134,1.5-.31.8.053,1.548-.124.677-.476,1.426-.644a8.529,8.529,0,0,1,1.543-.277c.474,0,1,.1,1.546.144.484.039,1,.13,1.53.2.488.068.956.391,1.478.486.489.089,1.033-.022,1.546.089.49.1.918.523,1.425.647.49.119,1.085-.14,1.587,0s.981.291,1.478.436.869.66,1.361.814,1.047.084,1.535.247.967.348,1.45.518.981.314,1.46.493,1.027.211,1.5.4.836.691,1.3.888,1.027.233,1.487.439c.479.216.92.488,1.37.705.477.231.967.4,1.406.631.473.249.8.717,1.218.964s.859.428,1.232.676c.415.274.9.4,1.254.666.4.3.764.606,1.1.894.384.333.615.771.92,1.076.369.371.874.543,1.148.856.37.422.461.952.709,1.23a5.473,5.473,0,0,0-1.415.21c-.411.105-.871.354-1.439.5-.445.114-1-.01-1.537.128-.458.117-.937.288-1.459.421-.466.12-.892.5-1.406.628-.471.121-.983.163-1.492.293-.475.122-.92.427-1.426.557-.478.122-.976.22-1.48.349-.48.123-.994.158-1.5.287-.481.123-.931.406-1.433.534-.481.123-1,.139-1.5.267-.482.123-.963.286-1.462.414-.483.124-.972.256-1.469.384s-.954.331-1.451.459-.979.232-1.475.359l-1.472.374c-.486.124-1.075-.137-1.571-.01s-.92.471-1.415.6-1.028.048-1.523.175-.941.391-1.436.518-.915.494-1.41.62-.974.264-1.468.39-1.023.077-1.517.2-1.036.03-1.529.156-.971.285-1.464.411-.937.419-1.43.545-.942.4-1.435.526-1.049-.018-1.542.108-1.01.118-1.5.243-.976.255-1.467.381-.97.279-1.461.4-.977.257-1.468.383-.957.336-1.449.461-1.006.147-1.5.272-.976.269-1.467.394-.993.206-1.484.332-.972.282-1.462.407-.983.242-1.474.368-.892.6-1.384.724-1.076-.118-1.568.008-.885.636-1.377.761-1.07-.083-1.562.043-.905.563-1.4.689-1.054-.015-1.547.111-.948.4-1.44.528-1.048.005-1.54.13-.873.69-1.364.815-1.037.048-1.529.174-.957.36-1.449.486-1.059-.038-1.551.087-.9.575-1.394.7-.975.293-1.466.419-1.023.109-1.514.235-1.032.07-1.523.2-.964.341-1.454.466-1,.205-1.489.331-.924.5-1.414.623-.966.33-1.456.455-1.053-.006-1.542.119-1.01.162-1.5.287-.927.487-1.416.612-1.044.027-1.533.152-.946.41-1.434.535-1.012.151-1.5.276-.993.225-1.48.35-.925.493-1.412.617-1,.2-1.488.322-1.051.009-1.537.133-.97.332-1.455.456-.959.376-1.444.5c-.5.128-1,.22-1.485.344s-.953.4-1.437.525c-.5.128-1.016.162-1.5.285-.5.129-1.022.14-1.5.263-.5.128-1.032.1-1.511.223-.5.129-.937.482-1.415.6-.507.13-1,.23-1.48.352-.512.131-.976.37-1.449.491-.515.131-1.1-.094-1.563.025-.523.134-.967.442-1.426.559-.535.137-1.048.171-1.492.285-.568.145-1.073.214-1.483.319C46.647,55.831,46.949,56.272,46.243,56ZM39.62,227.746c-.65.361-.6-.183-1.208-.61s-.5-.578-1.108-1-.7-.3-1.306-.726-.617-.415-1.226-.842-.413-.707-1.021-1.134-.638-.385-1.246-.812-.6-.438-1.21-.865-.663-.352-1.272-.78-.573-.478-1.182-.906-.823-.123-1.432-.551-.5-.577-1.107-1-.685-.322-1.294-.75-.445-.659-1.053-1.086-.672-.337-1.279-.764-.58-.473-1.19-.9-.705-.291-1.314-.719-.5-.591-1.105-1.019-.564-.5-1.174-.925-.689-.316-1.3-.744-.684-.324-1.3-.753-.556-.51-1.168-.94-.688-.293-1.034-.956a2.029,2.029,0,0,1-.327-1.4c0-.752.1-.753.091-1.5s.071-.753.066-1.5-.224-.751-.228-1.5.1-.753.093-1.5.007-.752,0-1.5-.168-.751-.172-1.5.366-.754.362-1.506-.249-.751-.254-1.5.308-.755.3-1.507-.115-.752-.119-1.5-.149-.752-.153-1.5-.115-.752-.119-1.5.375-.756.371-1.509-.455-.751-.46-1.5.245-.756.241-1.51.034-.755.03-1.509-.22-.754-.224-1.509.368-.758.363-1.513-.048-.755-.052-1.51-.268-.753-.272-1.508-.017-.754-.021-1.508.162-.755.158-1.509-.2-.753-.2-1.507-.1-.753-.1-1.506.416-.756.411-1.51-.117-.752-.121-1.506-.044-.753-.048-1.506-.182-.752-.186-1.506.252-.754.247-1.508-.246-.752-.251-1.506-.058-.753-.062-1.507.161-.755.157-1.509.055-.754.05-1.509.091-.755.086-1.51-.018-.755-.023-1.51-.153-.755-.158-1.511-.05-.755-.054-1.51.278-.757.274-1.512-.307-.753-.311-1.508.046-.755.042-1.509.242-.756.237-1.51-.371-.752-.376-1.506.148-.755.144-1.509.121-.755.116-1.509-.343-.753-.347-1.507.423-.757.419-1.512-.469-.752-.473-1.507.4-.758.4-1.513.062-.756.058-1.512-.227-.755-.231-1.51.095-.756.091-1.512-.064-.754-.069-1.509.129-.756.124-1.511-.09-.754-.094-1.509.038-.755.033-1.509-.267-.754-.272-1.509,0-.755,0-1.51.078-.756.074-1.512.216-.757.212-1.514-.373-.753-.377-1.509.4-.758.4-1.513-.341-.754-.345-1.509.316-.757.312-1.512-.2-.754-.2-1.51.172-.756.168-1.512-.366-.754-.37-1.51.193-.757.188-1.513-.055-.756-.06-1.512.074-.755.07-1.511-.248-.754-.252-1.51.081-.756.077-1.512.246-.757.241-1.514-.212-.755-.216-1.511.039-.753.035-1.507.23-.755.226-1.509-.3-.754-.307-1.509S12,92.126,12,91.369s.078-.756.074-1.512.028-.754.024-1.509.24-.756.236-1.51-.219-.753-.223-1.507.307-.757.3-1.512-.4-.754-.408-1.51.017-.757.013-1.514.381-.758.377-1.513-.241-.754-.245-1.51.016-.756.011-1.511-.041-.757-.045-1.514-.172-.756-.176-1.512.324-.758.319-1.514-.194-.756-.2-1.513.057-.757.052-1.515-.072-.756-.077-1.513.25-.759.245-1.516-.081-.757-.085-1.514-.184-.757-.188-1.515,0-.755,0-1.511.155-.757.15-1.512-.26-.757-.264-1.515.259-.759.255-1.516,0-.758,0-1.516-.131-.758-.135-1.516.254-.76.25-1.517-.051-.76-.055-1.519-.263-.759-.268-1.52-.6-1.127.066-1.5.7.255,1.331.666.613.434,1.241.844.577.489,1.205.9.718.276,1.348.687.567.506,1.2.917.65.378,1.279.789.633.405,1.262.816.676.34,1.306.752.62.425,1.249.836.628.414,1.258.825.409.745,1.036,1.154.755.22,1.385.632.515.585,1.144.995.708.288,1.337.7.768.2,1.4.613.637.4,1.267.811.533.562,1.163.974.507.6,1.138,1.015.65.382,1.28.794.727.267,1.358.679.717.285,1.35.7.723.361,1.083,1.026-.147.711-.147,1.467,0,.755,0,1.511.03.756.03,1.512.007.755.007,1.511.088.755.088,1.511-.107.755-.107,1.511.018.755.018,1.511-.047.756-.047,1.511.032.756.032,1.512-.008.756-.008,1.512.358.756.358,1.512-.381.756-.381,1.512.4.757.4,1.513-.346.757-.346,1.514.321.757.321,1.514-.276.758-.276,1.516.155.758.155,1.516-.255.758-.255,1.516.451.759.451,1.518-.21.759-.21,1.517.111.758.111,1.516-.3.758-.3,1.516.333.757.333,1.515.043.757.043,1.514-.148.757-.148,1.514-.188.757-.188,1.514.091.757.091,1.513-.048.757-.048,1.514.253.757.253,1.513.081.757.081,1.514-.267.757-.267,1.514-.093.757-.093,1.514.242.758.242,1.515-.233.758-.233,1.516.163.758.163,1.516-.1.759-.1,1.517-.028.759-.028,1.519.249.759.249,1.518-.057.758-.057,1.517-.252.758-.252,1.516.081.758.081,1.516.127.757.127,1.515-.035.758-.035,1.515.153.758.153,1.515-.095.758-.095,1.515-.118.758-.118,1.516-.158.758-.158,1.516.235.758.235,1.517-.026.758-.026,1.517.116.76.116,1.519-.362.759-.362,1.518.188.759.188,1.518-.093.758-.093,1.517-.059.758-.059,1.516.037.759.037,1.517.339.758.339,1.516-.017.758-.017,1.517.072.758.072,1.517-.085.759-.085,1.518-.231.76-.231,1.52-.046.759-.046,1.518.068.759.068,1.518.046.758.046,1.517.046.759.046,1.517-.074.759-.074,1.518.179.759.179,1.518-.323.759-.323,1.519.083.759.083,1.519.329.759.329,1.518-.358.759-.358,1.518.119.759.119,1.518-.11.759-.11,1.519-.08.759-.08,1.519.441.76.441,1.519-.4.757-.4,1.514.222.757.222,1.515.079.759.079,1.518.07.76.07,1.52-.107.759-.107,1.518-.245.758-.245,1.516.185.758.185,1.515-.1.758-.1,1.516.2.758.2,1.517-.232.759-.232,1.519.126.76.126,1.52-.021.759-.021,1.519.209.758.209,1.517-.124.759-.124,1.518.127.761.127,1.521-.463.76-.463,1.52.1.76.1,1.52.165.76.165,1.52-.225.761-.225,1.521.431.761.431,1.521-.186.761-.186,1.522.127.76.127,1.521-.393.761-.393,1.522.032.759.032,1.518-.023.76-.023,1.519-.034.761-.034,1.523.315.76.315,1.521.125.761.125,1.522-.379.763-.379,1.525.045.761.045,1.522-.02.763-.02,1.526a4.523,4.523,0,0,0,.254,1.5C39.974,227.092,40.288,227.376,39.62,227.746Z"/></g></g></svg>