<svg xmlns="http://www.w3.org/2000/svg" viewBox="0 0 208.01 69.435"><defs><style>.cls-1{fill:#231815;}</style></defs><title> アセット 96</title><g id="レイヤー_2" data-name="レイヤー 2"><g id="レイヤー_1-2" data-name="レイヤー 1"><path class="cls-1" d="M72.215.1H56.43a3,3,0,0,0-2.864,2.1L40.046,45.432,26.33,2.192A3,3,0,0,0,23.471.1H7.772A3,3,0,0,0,4.781,2.874L.009,66.209A3,3,0,0,0,3,69.435H13.157a3,3,0,0,0,3-2.841L18.5,22.432l14.26,44.91a3,3,0,0,0,2.859,2.093h8.646a3,3,0,0,0,2.862-2.1L61.2,22.642l2.525,43.965a3,3,0,0,0,3,2.828H76.9a3,3,0,0,0,2.993-3.221L75.207,2.878A3,3,0,0,0,72.215.1Z"/><path class="cls-1" d="M126.891,1.943A3,3,0,0,0,124.083,0H111.206A3,3,0,0,0,108.4,1.943L84.53,65.378a3,3,0,0,0,2.808,4.057h10.7a3,3,0,0,0,2.829-2l4.193-11.9h24.368l4.194,11.9a3,3,0,0,0,2.829,2h11.5a3,3,0,0,0,2.808-4.057ZM125.612,42.6H108.877l8.368-24.132Z"/><path class="cls-1" d="M182.643.1H160.777a3,3,0,0,0-3,3V66.435a3,3,0,0,0,3,3h10.53a3,3,0,0,0,3-3v-22.5h8.336c16.121,0,25.367-8.007,25.367-21.967C208.01,8.07,198.764.1,182.643.1Zm-8.435,12.832h6.136c7.358,0,10.935,2.955,10.935,9.035,0,6.147-3.577,9.135-10.935,9.135h-6.136Z"/></g></g></svg>