<svg width="157" height="157" viewBox="0 0 157 157" fill="none" xmlns="http://www.w3.org/2000/svg">
<path d="M156.7 78.3502C156.7 121.622 121.622 156.7 78.3502 156.7C35.0786 156.7 0 121.622 0 78.3502C0 35.0786 35.0786 0 78.3502 0C121.622 0 156.7 35.0786 156.7 78.3502Z" fill="#333333"/>
<path d="M77.4797 78.222C77.4797 82.904 76.9752 86.8998 75.9662 90.2095C74.9975 93.5192 73.4435 96.0621 71.3043 97.838C69.1651 99.6139 66.3398 100.502 62.8283 100.502C57.8637 100.502 54.1907 98.5443 51.8094 94.6292C49.4684 90.6737 48.2979 85.2046 48.2979 78.222C48.2979 73.5803 48.762 69.6046 49.6903 66.2949C50.659 62.9449 52.213 60.402 54.3522 58.6665C56.4914 56.8905 59.3167 56.0026 62.8283 56.0026C67.7524 56.0026 71.4254 57.9601 73.8471 61.8753C76.2689 65.75 77.4797 71.1989 77.4797 78.222ZM54.7154 78.222C54.7154 83.8727 55.3209 88.1107 56.5317 90.9361C57.7426 93.7211 59.8414 95.1135 62.8283 95.1135C65.7747 95.1135 67.8735 93.7211 69.1248 90.9361C70.376 88.1511 71.0016 83.913 71.0016 78.222C71.0016 72.6116 70.376 68.4139 69.1248 65.629C67.8735 62.8036 65.7747 61.3909 62.8283 61.3909C59.8414 61.3909 57.7426 62.8036 56.5317 65.629C55.3209 68.4139 54.7154 72.6116 54.7154 78.222Z" fill="white"/>
<path d="M102.742 99.8965H96.3853V71.1989C96.3853 69.7055 96.4055 68.3332 96.4459 67.082C96.4862 65.8308 96.5468 64.6199 96.6275 63.4494C96.1028 63.9741 95.5579 64.4988 94.9928 65.0235C94.4278 65.5079 93.782 66.0528 93.0555 66.6582L88.3331 70.4724L85.0637 66.3555L97.4146 56.6685H102.742V99.8965Z" fill="white"/>
</svg>
