<svg width="157" height="157" viewBox="0 0 157 157" fill="none" xmlns="http://www.w3.org/2000/svg">
<path d="M156.7 78.3502C156.7 121.622 121.622 156.7 78.3502 156.7C35.0786 156.7 0 121.622 0 78.3502C0 35.0786 35.0786 0 78.3502 0C121.622 0 156.7 35.0786 156.7 78.3502Z" fill="#333333"/>
<path d="M74.4534 78.222C74.4534 82.904 73.9488 86.8998 72.9398 90.2095C71.9711 93.5192 70.4171 96.0621 68.2779 97.838C66.1387 99.6139 63.3134 100.502 59.8019 100.502C54.8373 100.502 51.1644 98.5443 48.783 94.6292C46.442 90.6737 45.2715 85.2046 45.2715 78.222C45.2715 73.5803 45.7356 69.6046 46.664 66.2949C47.6327 62.9449 49.1866 60.402 51.3258 58.6665C53.465 56.8905 56.2904 56.0026 59.8019 56.0026C64.7261 56.0026 68.399 57.9601 70.8208 61.8753C73.2425 65.75 74.4534 71.1989 74.4534 78.222ZM51.6891 78.222C51.6891 83.8727 52.2945 88.1107 53.5054 90.9361C54.7162 93.7211 56.8151 95.1135 59.8019 95.1135C62.7483 95.1135 64.8472 93.7211 66.0984 90.9361C67.3496 88.1511 67.9752 83.913 67.9752 78.222C67.9752 72.6116 67.3496 68.4139 66.0984 65.629C64.8472 62.8036 62.7483 61.3909 59.8019 61.3909C56.8151 61.3909 54.7162 62.8036 53.5054 65.629C52.2945 68.4139 51.6891 72.6116 51.6891 78.222Z" fill="white"/>
<path d="M109.04 99.8965H79.9789V94.9319L91.1189 83.6103C93.2984 81.3904 95.1147 79.4732 96.5678 77.8587C98.0208 76.2039 99.1106 74.6297 99.8371 73.1363C100.564 71.6026 100.927 69.9477 100.927 68.1718C100.927 65.9922 100.281 64.3374 98.9895 63.2072C97.6979 62.0771 96.0229 61.512 93.9644 61.512C91.9867 61.512 90.2107 61.8753 88.6366 62.6018C87.0625 63.3283 85.4278 64.3777 83.7326 65.75L80.2816 61.4515C82.0172 59.9984 83.9949 58.7472 86.2149 57.6978C88.4348 56.608 91.0785 56.0631 94.146 56.0631C98.263 56.0631 101.492 57.1125 103.833 59.2114C106.214 61.3102 107.405 64.1154 107.405 67.6269C107.405 69.9275 106.941 72.0667 106.013 74.0445C105.084 75.9819 103.772 77.9192 102.077 79.8566C100.382 81.794 98.3841 83.8727 96.0834 86.0926L88.0312 93.9027V94.2054H109.04V99.8965Z" fill="white"/>
</svg>
