<svg width="157" height="157" viewBox="0 0 157 157" fill="none" xmlns="http://www.w3.org/2000/svg">
<path d="M156.7 78.3502C156.7 121.622 121.622 156.7 78.3502 156.7C35.0786 156.7 0 121.622 0 78.3502C0 35.0786 35.0786 0 78.3502 0C121.622 0 156.7 35.0786 156.7 78.3502Z" fill="#333333"/>
<path d="M74.4543 78.222C74.4543 82.904 73.9498 86.8998 72.9408 90.2095C71.9721 93.5192 70.4181 96.0621 68.2789 97.838C66.1397 99.6139 63.3144 100.502 59.8029 100.502C54.8383 100.502 51.1653 98.5443 48.784 94.6292C46.443 90.6737 45.2725 85.2046 45.2725 78.222C45.2725 73.5803 45.7366 69.6046 46.665 66.2949C47.6337 62.9449 49.1876 60.402 51.3268 58.6665C53.466 56.8905 56.2913 56.0026 59.8029 56.0026C64.727 56.0026 68.4 57.9601 70.8217 61.8753C73.2435 65.75 74.4543 71.1989 74.4543 78.222ZM51.6901 78.222C51.6901 83.8727 52.2955 88.1107 53.5064 90.9361C54.7172 93.7211 56.8161 95.1136 59.8029 95.1136C62.7493 95.1136 64.8481 93.7211 66.0994 90.9361C67.3506 88.1511 67.9762 83.913 67.9762 78.222C67.9762 72.6116 67.3506 68.4139 66.0994 65.629C64.8481 62.8036 62.7493 61.3909 59.8029 61.3909C56.8161 61.3909 54.7172 62.8036 53.5064 65.629C52.2955 68.4139 51.6901 72.6116 51.6901 78.222Z" fill="white"/>
<path d="M110.675 90.3306H104.682V99.8965H98.4456V90.3306H78.4057V85.245L98.3245 56.4869H104.682V84.8817H110.675V90.3306ZM98.4456 84.8817V73.1363C98.4456 71.2393 98.4859 69.4634 98.5667 67.8085C98.6474 66.1133 98.7079 64.7006 98.7483 63.5705H98.5061C98.1832 64.3777 97.7796 65.2051 97.2953 66.0528C96.8513 66.9004 96.3871 67.6471 95.9028 68.2929L84.4601 84.8817H98.4456Z" fill="white"/>
</svg>
