<svg width="157" height="157" viewBox="0 0 157 157" fill="none" xmlns="http://www.w3.org/2000/svg">
<path d="M156.7 78.3502C156.7 121.622 121.622 156.7 78.3502 156.7C35.0786 156.7 0 121.622 0 78.3502C0 35.0786 35.0786 0 78.3502 0C121.622 0 156.7 35.0786 156.7 78.3502Z" fill="#333333"/>
<path d="M74.4524 78.222C74.4524 82.904 73.9479 86.8998 72.9388 90.2095C71.9701 93.5192 70.4162 96.0621 68.277 97.838C66.1378 99.6139 63.3124 100.502 59.8009 100.502C54.8364 100.502 51.1634 98.5443 48.782 94.6292C46.441 90.6737 45.2705 85.2046 45.2705 78.222C45.2705 73.5803 45.7347 69.6046 46.663 66.2949C47.6317 62.9449 49.1856 60.402 51.3248 58.6665C53.464 56.8905 56.2894 56.0026 59.8009 56.0026C64.7251 56.0026 68.3981 57.9601 70.8198 61.8753C73.2415 65.75 74.4524 71.1989 74.4524 78.222ZM51.6881 78.222C51.6881 83.8727 52.2935 88.1107 53.5044 90.9361C54.7153 93.7211 56.8141 95.1135 59.8009 95.1135C62.7473 95.1135 64.8462 93.7211 66.0974 90.9361C67.3486 88.1511 67.9743 83.913 67.9743 78.222C67.9743 72.6116 67.3486 68.4139 66.0974 65.629C64.8462 62.8036 62.7473 61.3909 59.8009 61.3909C56.8141 61.3909 54.7153 62.8036 53.5044 65.629C52.2935 68.4139 51.6881 72.6116 51.6881 78.222Z" fill="white"/>
<path d="M107.344 66.6582C107.344 69.6046 106.496 71.9456 104.801 73.6812C103.146 75.4168 100.986 76.5671 98.3225 77.1322V77.3744C101.753 77.778 104.337 78.8678 106.072 80.6437C107.808 82.3793 108.675 84.6799 108.675 87.5456C108.675 90.0481 108.07 92.2882 106.859 94.2659C105.689 96.2033 103.852 97.7371 101.35 98.8672C98.8876 99.957 95.7192 100.502 91.8444 100.502C89.5438 100.502 87.4046 100.32 85.4268 99.957C83.4491 99.5938 81.5722 98.9883 79.7963 98.1407V92.3286C81.6126 93.2569 83.55 93.9632 85.6084 94.4476C87.7073 94.9319 89.7052 95.1741 91.6022 95.1741C95.2752 95.1741 97.9189 94.4879 99.5334 93.1156C101.148 91.7029 101.955 89.7454 101.955 87.2429C101.955 84.8212 100.986 83.0452 99.0491 81.9151C97.1117 80.785 94.2056 80.2199 90.3308 80.2199H86.3955V74.9526H90.3914C94.0643 74.9526 96.7282 74.2665 98.3831 72.8942C100.038 71.5218 100.865 69.7257 100.865 67.5058C100.865 65.5684 100.22 64.075 98.928 63.0256C97.6767 61.9358 95.8605 61.3909 93.4791 61.3909C91.2592 61.3909 89.3218 61.734 87.6669 62.4202C86.0524 63.1063 84.5388 63.9337 83.1262 64.9024L79.9779 60.4828C81.552 59.2719 83.4692 58.2427 85.7295 57.3951C88.0302 56.5071 90.6739 56.0631 93.6607 56.0631C98.1409 56.0631 101.531 57.052 103.832 59.0297C106.173 60.9671 107.344 63.5099 107.344 66.6582Z" fill="white"/>
</svg>
