<svg width="616" height="147" viewBox="0 0 616 147" fill="none" xmlns="http://www.w3.org/2000/svg">
<path d="M92.6001 106C92.6001 118.667 88.0001 128.667 78.8001 136C69.6001 143.333 56.8668 147 40.6001 147C24.8668 147 11.5334 144.333 0.600098 139V115C6.6001 117.667 13.2001 120.133 20.4001 122.4C27.6001 124.533 34.9334 125.6 42.4001 125.6C50.9334 125.6 57.2001 123.933 61.2001 120.6C65.2001 117.267 67.2001 112.867 67.2001 107.4C67.2001 101.4 64.6668 96.6666 59.6001 93.2C54.5334 89.7333 47.1334 85.9333 37.4001 81.8C31.5334 79.2666 25.9334 76.2666 20.6001 72.7999C15.2668 69.3333 10.8668 64.9333 7.4001 59.6C3.93343 54.1333 2.2001 47.3333 2.2001 39.2C2.2001 26.9333 6.46676 17.3999 15.0001 10.5999C23.6668 3.66662 35.2001 0.199951 49.6001 0.199951C57.2001 0.199951 64.2668 0.999953 70.8001 2.59996C77.4668 4.19995 84.1334 6.46662 90.8001 9.39995L82.6001 29.9999C76.6001 27.4666 70.8668 25.4666 65.4001 24C60.0668 22.5333 54.5334 21.7999 48.8001 21.7999C41.8668 21.7999 36.6001 23.4 33.0001 26.6C29.4001 29.6666 27.6001 33.6666 27.6001 38.6C27.6001 42.6 28.6001 45.9333 30.6001 48.6C32.6001 51.2666 35.6668 53.7333 39.8001 56C44.0668 58.2666 49.5334 60.8666 56.2001 63.8C63.8001 67.1333 70.3334 70.6 75.8001 74.2C81.2668 77.8 85.4001 82.1333 88.2001 87.2C91.1334 92.2666 92.6001 98.5333 92.6001 106Z" fill="#333333" fill-opacity="0.05"/>
<path d="M233.561 145H207.961V81.6H145.161V145H119.561V2.19995H145.161V59.8H207.961V2.19995H233.561V145Z" fill="#333333" fill-opacity="0.05"/>
<path d="M358.933 145L345.933 107.2H292.133L279.333 145H252.133L304.533 1.59996H333.733L386.133 145H358.933ZM339.333 85.2L326.933 48.4C326.4 46.5333 325.6 44 324.533 40.8C323.466 37.6 322.4 34.3333 321.333 30.9999C320.4 27.5333 319.666 24.6666 319.133 22.4C318.466 25.0666 317.6 28.1333 316.533 31.6C315.6 35.0666 314.666 38.3333 313.733 41.4C312.8 44.4666 312.133 46.8 311.733 48.4L299.133 85.2H339.333Z" fill="#333333" fill-opacity="0.05"/>
<path d="M445.513 2.19995C464.313 2.19995 478.179 5.66661 487.113 12.5999C496.179 19.5333 500.713 30.0666 500.713 44.2C500.713 51.1333 499.379 57.0666 496.713 62C494.179 66.9333 490.846 71.0666 486.713 74.4C482.579 77.6 478.113 80.1999 473.313 82.2L514.313 145H485.513L451.313 88.6H430.513V145H404.913V2.19995H445.513ZM443.913 23.5999H430.513V67.6H444.713C455.246 67.6 462.846 65.7333 467.513 62C472.313 58.1333 474.713 52.4666 474.713 45C474.713 37.2666 472.179 31.8 467.113 28.6C462.179 25.2666 454.446 23.5999 443.913 23.5999Z" fill="#333333" fill-opacity="0.05"/>
<path d="M615.409 145H534.209V2.19995H615.409V23.5999H559.81V60H611.81V81.4H559.81V123.4H615.409V145Z" fill="#333333" fill-opacity="0.05"/>
</svg>
