<svg xmlns="http://www.w3.org/2000/svg" viewBox="0 0 256.709 71.636"><defs><style>.cls-1{fill:#231815;}</style></defs><title> アセット 90</title><g id="レイヤー_2" data-name="レイヤー 2"><g id="レイヤー_1-2" data-name="レイヤー 1"><path class="cls-1" d="M35.662,30.235l-.052-.02c-1.107-.453-2.982-1.147-4.795-1.817-1.962-.727-3.991-1.478-5.51-2.085-3.633-1.407-6.895-2.989-6.895-6.846,0-5.447,6.179-6.035,8.835-6.035,3.992,0,8.94,1.874,12.913,4.89a3,3,0,0,0,4.374-.826l3.917-6.415a3,3,0,0,0-.714-3.929A35.216,35.216,0,0,0,27.646.3C20.173.3,13.49,2.328,9.339,5.839a19.548,19.548,0,0,0-7.26,15.228c0,5.608,1.8,10.01,5.451,13.419a24.685,24.685,0,0,0,7.416,4.656l.132.059c.244.109.458.2.6.271l.105.048c1.7.738,5.029,1.932,7.705,2.891l.106.038c.988.355,1.917.688,2.71.979l.12.044c3.8,1.393,7.862,3.229,7.862,7.4,0,4.213-3.547,6.935-9.037,6.935-4.57,0-10.837-2.629-15.593-6.541a3,3,0,0,0-4.389.633l-4.746,7a3,3,0,0,0,.588,4.01c4,3.26,12.261,8.73,22.64,8.73A31.673,31.673,0,0,0,41.776,66.4a20.125,20.125,0,0,0,8.936-17.132C50.712,40.269,45.628,33.858,35.662,30.235Z"/><path class="cls-1" d="M116.411,1.1H105.88a3,3,0,0,0-3,3V27.8H75.508V4.1a3,3,0,0,0-3-3H61.978a3,3,0,0,0-3,3V67.436a3,3,0,0,0,3,3h10.53a3,3,0,0,0,3-3v-25.9H102.88v25.9a3,3,0,0,0,3,3h10.531a3,3,0,0,0,3-3V4.1A3,3,0,0,0,116.411,1.1Z"/><path class="cls-1" d="M162.944,0c-21.993,0-36.768,14.414-36.768,35.868,0,21.394,14.775,35.768,36.768,35.768s36.767-14.374,36.767-35.768C199.711,14.414,184.936,0,162.944,0Zm0,56.9c-11.985,0-20.037-8.614-20.037-21.436,0-12.761,8.052-21.336,20.037-21.336s20.036,8.575,20.036,21.336C182.98,48.29,174.928,56.9,162.944,56.9Z"/><path class="cls-1" d="M231.343,1.1H209.477a3,3,0,0,0-3,3V67.436a3,3,0,0,0,3,3h10.53a3,3,0,0,0,3-3v-22.5h8.336c16.12,0,25.366-8.007,25.366-21.967C256.709,9.07,247.463,1.1,231.343,1.1Zm-8.436,12.832h6.136c7.359,0,10.936,2.956,10.936,9.035,0,6.147-3.577,9.135-10.936,9.135h-6.136Z"/></g></g></svg>